<svg xmlns="http://www.w3.org/2000/svg" viewBox="0 0 755.96 99.27"><defs><style>.cls-1,.cls-2{fill:#00bbff;}.cls-2,.cls-4{fill-rule:evenodd;}.cls-3,.cls-4{fill:#fff;}</style></defs><g id="Layer_2" data-name="Layer 2"><g id="logo"><path class="cls-1" d="M169.94,35.58a7.35,7.35,0,0,1,2.18,5.79q0,4.11-2,6.11T163,50l-3.74.37q-6.84.75-9.9,4.48a14.71,14.71,0,0,0-3,9.59V88.2q0,4.36-2.68,6.6A10,10,0,0,1,137,97.05a10.2,10.2,0,0,1-6.79-2.25c-1.78-1.49-2.68-3.69-2.68-6.6V42.49a7.78,7.78,0,0,1,2.74-6.35,10.13,10.13,0,0,1,6.61-2.24,9.11,9.11,0,0,1,6.22,2.18,7.61,7.61,0,0,1,2.49,6v3.36a17.45,17.45,0,0,1,6.79-8.22,21.15,21.15,0,0,1,9.9-3.23L164,33.9A7.81,7.81,0,0,1,169.94,35.58Z"/><path class="cls-1" d="M233.83,36.27a8.39,8.39,0,0,1,2.55,6.47V88.45a7.92,7.92,0,0,1-2.67,6.23,10.06,10.06,0,0,1-6.92,2.37,8.83,8.83,0,0,1-6.35-2.25,7.81,7.81,0,0,1-2.36-6V87.58a19.41,19.41,0,0,1-7.54,7.22A22,22,0,0,1,200,97.29q-11.6,0-17.25-6.41T177.1,71.51V42.74a8.39,8.39,0,0,1,2.55-6.47,9.77,9.77,0,0,1,6.92-2.37,9.56,9.56,0,0,1,6.85,2.37,8.5,8.5,0,0,1,2.49,6.47V71.89c0,3.65.76,6.35,2.3,8.09s3.88,2.62,7,2.62a11.52,11.52,0,0,0,8.9-3.74A14,14,0,0,0,217.58,69V42.74a8.5,8.5,0,0,1,2.49-6.47,9.52,9.52,0,0,1,6.85-2.37A9.76,9.76,0,0,1,233.83,36.27Z"/><path class="cls-1" d="M290.31,85.21a6.95,6.95,0,0,1-1.12,10.22q-2.87,1.86-8.22,1.49l-3.49-.25q-21.8-1.74-21.79-22.79V49.22h-5q-4.11,0-6.22-1.81a6.4,6.4,0,0,1-2.12-5.16,6.59,6.59,0,0,1,2.12-5.3q2.11-1.8,6.22-1.8h5V25.43A8.38,8.38,0,0,1,258.24,19a9.74,9.74,0,0,1,6.91-2.37A9.52,9.52,0,0,1,272,19a8.48,8.48,0,0,1,2.49,6.47v9.72h8.72q8.48,0,8.47,7.1a6.4,6.4,0,0,1-2.12,5.16q-2.12,1.81-6.35,1.81h-8.72v26a8.17,8.17,0,0,0,1.75,5.67,7.33,7.33,0,0,0,5.1,2.18l3.49.25A8.77,8.77,0,0,1,290.31,85.21Z"/><path class="cls-1" d="M346.48,40.19q6.47,6.54,6.47,20V88.33a8.55,8.55,0,0,1-2.36,6.41,9.06,9.06,0,0,1-6.6,2.31,8.68,8.68,0,0,1-6.42-2.43,8.52,8.52,0,0,1-2.43-6.29v-.87a14.64,14.64,0,0,1-6.22,7.22,19.52,19.52,0,0,1-10.22,2.61,25.14,25.14,0,0,1-11.27-2.49,19.73,19.73,0,0,1-8-7,17.84,17.84,0,0,1-2.92-10q0-6.74,3.42-10.59t11-5.61q7.61-1.74,20.8-1.74H335V57.69q0-5.23-2.31-7.6c-1.53-1.57-4.09-2.36-7.65-2.36s-8.72,1.24-15.45,3.73a11.65,11.65,0,0,1-4.85,1.37,5.37,5.37,0,0,1-4.36-1.93,7.57,7.57,0,0,1-1.62-5,7,7,0,0,1,1.12-4.11,10.34,10.34,0,0,1,3.61-3A40.46,40.46,0,0,1,314.16,35a58.27,58.27,0,0,1,12.39-1.37Q340,33.65,346.48,40.19ZM331.66,80.67A13.58,13.58,0,0,0,335,71.14V69H332.9c-6.72,0-11.44.54-14.13,1.62a5.86,5.86,0,0,0-4,5.85,7.46,7.46,0,0,0,2.3,5.67,8.08,8.08,0,0,0,5.79,2.18A11.43,11.43,0,0,0,331.66,80.67Z"/><path class="cls-1" d="M426.25,10.24a7.92,7.92,0,0,1,2.67,6.23V88.2a8.46,8.46,0,0,1-2.55,6.42,10.7,10.7,0,0,1-13.58,0,8.46,8.46,0,0,1-2.55-6.42v-1a19.24,19.24,0,0,1-7.78,7.41,24,24,0,0,1-11.4,2.67,24.94,24.94,0,0,1-14-4,26.84,26.84,0,0,1-9.59-11.34A39,39,0,0,1,364,65.16a38.13,38.13,0,0,1,3.42-16.62,25.06,25.06,0,0,1,23.6-14.89,24,24,0,0,1,11.27,2.62,18.69,18.69,0,0,1,7.79,7.35V16.09a7.66,7.66,0,0,1,2.49-6,9.51,9.51,0,0,1,6.6-2.24A10.25,10.25,0,0,1,426.25,10.24ZM406.69,78.43q3.56-4.55,3.55-13t-3.55-12.95Q403.15,48,396.54,48T386.33,52.4q-3.61,4.41-3.61,12.76t3.61,13.14Q389.95,83,396.54,83T406.69,78.43Z"/><path class="cls-1" d="M445,21.39a8.82,8.82,0,0,1-2.87-6.92A8.63,8.63,0,0,1,445,7.62a11.54,11.54,0,0,1,7.84-2.49,11.39,11.39,0,0,1,7.79,2.56,8.55,8.55,0,0,1,2.92,6.78,8.81,8.81,0,0,1-2.86,6.92,13.34,13.34,0,0,1-15.69,0Zm1.06,73.41q-2.69-2.23-2.68-6.6V42.74a8,8,0,0,1,2.74-6.6,10.28,10.28,0,0,1,6.72-2.24,10.07,10.07,0,0,1,6.67,2.24q2.67,2.25,2.67,6.6V88.2q0,4.36-2.67,6.6a10,10,0,0,1-6.67,2.25A10.16,10.16,0,0,1,446.05,94.8Z"/><path class="cls-1" d="M519,35.58a7.35,7.35,0,0,1,2.18,5.79q0,4.11-2,6.11c-1.33,1.33-3.69,2.16-7.1,2.49l-3.73.37q-6.86.75-9.9,4.48a14.66,14.66,0,0,0-3.05,9.59V88.2c0,2.91-.9,5.11-2.68,6.6a10,10,0,0,1-6.66,2.25,10.19,10.19,0,0,1-6.79-2.25q-2.69-2.23-2.68-6.6V42.49a7.75,7.75,0,0,1,2.74-6.35A10.12,10.12,0,0,1,486,33.9a9.14,9.14,0,0,1,6.23,2.18,7.61,7.61,0,0,1,2.49,6v3.36a17.39,17.39,0,0,1,6.79-8.22,21.15,21.15,0,0,1,9.9-3.23l1.74-.13A7.85,7.85,0,0,1,519,35.58Z"/><path class="cls-1" d="M578.43,80.11a8,8,0,0,1,1.56,5.1,6.79,6.79,0,0,1-1.25,3.93,10.12,10.12,0,0,1-3.48,3,44.87,44.87,0,0,1-9.84,3.67,41.73,41.73,0,0,1-10.34,1.43,37,37,0,0,1-17.37-3.86,27,27,0,0,1-11.4-11,34.11,34.11,0,0,1-4-16.87A34.55,34.55,0,0,1,526.19,49,28.3,28.3,0,0,1,536.9,37.7a30,30,0,0,1,15.57-4.05,28.46,28.46,0,0,1,14.63,3.68,25.11,25.11,0,0,1,9.78,10.46,34.35,34.35,0,0,1,3.48,15.88,6,6,0,0,1-1.3,4.17,4.76,4.76,0,0,1-3.68,1.43H540.51q.87,7.35,4.48,10.65t10.34,3.3a22.29,22.29,0,0,0,6.48-.87A61.91,61.91,0,0,0,568.16,80c1.16-.5,2.28-.93,3.36-1.31a9,9,0,0,1,2.87-.56A4.89,4.89,0,0,1,578.43,80.11ZM544.37,50q-3.24,3.42-3.86,9.9h24q-.37-6.6-3.3-10T553,46.61A11.28,11.28,0,0,0,544.37,50Z"/><path class="cls-1" d="M603.4,93.43a26.33,26.33,0,0,1-10.89-11,34.76,34.76,0,0,1-3.8-16.69,34.26,34.26,0,0,1,4-16.87,28.12,28.12,0,0,1,11.4-11.27,34.93,34.93,0,0,1,16.94-4,38.2,38.2,0,0,1,10,1.37,33.66,33.66,0,0,1,9,3.86,7.68,7.68,0,0,1,3.86,7,8.74,8.74,0,0,1-1.49,5.29,4.71,4.71,0,0,1-4,2.06,8.38,8.38,0,0,1-3-.56c-1-.38-2.22-.94-3.8-1.69A37.83,37.83,0,0,0,627,48.85a13.54,13.54,0,0,0-4.67-.75q-7,0-10.65,4.42T608,65.41q0,8.48,3.67,13t10.65,4.49a14.06,14.06,0,0,0,4.61-.69A35.41,35.41,0,0,0,631.8,80c1.57-.74,2.82-1.31,3.73-1.68a7.92,7.92,0,0,1,3-.56,4.72,4.72,0,0,1,3.93,2.12A8.85,8.85,0,0,1,644,85.21a7.37,7.37,0,0,1-3.86,6.85,33.1,33.1,0,0,1-9.21,3.86,42.86,42.86,0,0,1-11,1.37A34.11,34.11,0,0,1,603.4,93.43Z"/><path class="cls-1" d="M693.32,85.21a6.95,6.95,0,0,1-1.12,10.22q-2.87,1.86-8.22,1.49l-3.49-.25Q658.7,94.93,658.7,73.88V49.22h-5q-4.11,0-6.22-1.81a6.4,6.4,0,0,1-2.12-5.16,6.59,6.59,0,0,1,2.12-5.3q2.12-1.8,6.22-1.8h5V25.43A8.38,8.38,0,0,1,661.25,19a9.74,9.74,0,0,1,6.91-2.37A9.52,9.52,0,0,1,675,19a8.48,8.48,0,0,1,2.49,6.47v9.72h8.72q8.47,0,8.47,7.1a6.4,6.4,0,0,1-2.12,5.16q-2.12,1.81-6.35,1.81H677.5v26a8.17,8.17,0,0,0,1.75,5.67,7.33,7.33,0,0,0,5.1,2.18l3.49.25A8.77,8.77,0,0,1,693.32,85.21Z"/><path class="cls-1" d="M749.49,40.19q6.46,6.54,6.47,20V88.33a8.55,8.55,0,0,1-2.36,6.41,9.06,9.06,0,0,1-6.6,2.31,8.68,8.68,0,0,1-6.42-2.43,8.52,8.52,0,0,1-2.43-6.29v-.87a14.64,14.64,0,0,1-6.22,7.22,19.52,19.52,0,0,1-10.22,2.61,25.14,25.14,0,0,1-11.27-2.49,19.73,19.73,0,0,1-8-7,17.84,17.84,0,0,1-2.92-10q0-6.74,3.42-10.59t11-5.61q7.6-1.74,20.8-1.74H738V57.69q0-5.23-2.3-7.6t-7.66-2.36q-5.37,0-15.45,3.73a11.65,11.65,0,0,1-4.85,1.37,5.37,5.37,0,0,1-4.36-1.93,7.57,7.57,0,0,1-1.62-5,7,7,0,0,1,1.12-4.11,10.34,10.34,0,0,1,3.61-3A40.59,40.59,0,0,1,717.17,35a58.27,58.27,0,0,1,12.39-1.37Q743,33.65,749.49,40.19ZM734.67,80.67A13.58,13.58,0,0,0,738,71.14V69h-2.12c-6.72,0-11.44.54-14.13,1.62a5.86,5.86,0,0,0-4,5.85,7.46,7.46,0,0,0,2.3,5.67,8.08,8.08,0,0,0,5.79,2.18A11.43,11.43,0,0,0,734.67,80.67Z"/><path id="Carrocería" class="cls-2" d="M106.54,79.21c0,16.59-13.79,20.06-19.93,20.06-11.7,0-7.17-7.52-33.34-7.5s-21.65,7.5-33.34,7.5C13.79,99.27,0,95.8,0,79.21.79,50.89,9.44,5.55,16.89,2.52,24.38-.3,53.27,0,53.27,0h0S82.16-.29,89.65,2.53C97.1,5.57,105.75,50.9,106.54,79.21Z"/><ellipse id="Foco_Derecho" data-name="Foco Derecho" class="cls-3" cx="86.59" cy="79.28" rx="7.34" ry="7.31"/><ellipse id="Foco_Izquierdo" data-name="Foco Izquierdo" class="cls-3" cx="19.48" cy="79.28" rx="7.34" ry="7.31"/><path id="Parabrisas" class="cls-4" d="M96.55,46.84c-.33,3-1.41,3.32-4.37,3.32-23.55-2.25-38.91-2.08-38.91-2.08h0S37.9,47.9,14.36,50.16c-3,0-4-.36-4.37-3.33S15,9.43,21.33,7,53.27,4.79,53.27,4.79v0S79,4.69,85.41,7.17,96.88,43.86,96.55,46.84Z"/></g></g></svg>