<?xml version="1.0" encoding="utf-8"?>
<!-- Generator: Adobe Illustrator 28.3.0, SVG Export Plug-In . SVG Version: 6.00 Build 0)  -->
<svg version="1.1" id="Capa_1" xmlns="http://www.w3.org/2000/svg" xmlns:xlink="http://www.w3.org/1999/xlink" x="0px" y="0px"
	 viewBox="0 0 18.2 21" style="enable-background:new 0 0 18.2 21;" xml:space="preserve">
<style type="text/css">
	.st0{fill:#3CB4E5;}
	.st1{fill:#DF1683;}
	.st2{fill:#C2D500;}
	.st3{fill:none;stroke:#3CB4E5;stroke-width:10;stroke-linecap:round;stroke-linejoin:round;stroke-miterlimit:10;}
	.st4{fill:none;stroke:#3CB4E5;stroke-width:10;stroke-linecap:round;stroke-linejoin:round;}
	.st5{fill:none;stroke:#3CB4E5;stroke-width:10;stroke-linecap:round;stroke-linejoin:round;stroke-dasharray:24.0556,24.0556;}
	.st6{fill:none;stroke:#3CB4E5;stroke-width:10;stroke-linecap:round;stroke-linejoin:round;stroke-dasharray:51.256,20.1004;}
	.st7{fill:none;stroke:#DF1683;stroke-width:10;stroke-linecap:round;stroke-linejoin:round;stroke-miterlimit:10;}
	.st8{fill:none;stroke:#C2D500;stroke-width:10;stroke-linecap:round;stroke-linejoin:round;stroke-miterlimit:10;}
	.st9{fill:none;stroke:#C2D500;stroke-width:10;stroke-miterlimit:10;}
	.st10{fill:#C2D500;stroke:#C2D500;stroke-width:10;stroke-linecap:round;stroke-linejoin:round;stroke-miterlimit:10;}
	.st11{fill:none;stroke:#DF1683;stroke-width:10;stroke-miterlimit:10;}
</style>
<g>
	<path class="st2" d="M16,15.2c-0.2,0-0.4,0.2-0.4,0.4v4.1c0,0.3-0.3,0.6-0.6,0.6H1.4c-0.3,0-0.6-0.3-0.6-0.6V6.9h5.7
		c0.2,0,0.4-0.2,0.4-0.4V0.8h3.5v3.4c0,0.1,0.1,0.3,0.2,0.3c0.1,0.1,0.3,0.1,0.4,0l1.4-0.9l1.4,0.9c0.1,0,0.1,0.1,0.2,0.1
		c0.1,0,0.1,0,0.2,0c0.1-0.1,0.2-0.2,0.2-0.3V0.8h0.5c0.5,0,0.9,0.4,0.9,0.9v7.4c0,0.2,0.2,0.4,0.4,0.4s0.4-0.2,0.4-0.4V1.6
		c0-0.9-0.7-1.6-1.6-1.6h-0.9h-3.2H6.5c0,0,0,0,0,0C6.4,0,6.3,0,6.2,0.1L0.1,6.2c0,0,0,0,0,0.1c0,0,0,0,0,0c0,0,0,0,0,0c0,0,0,0,0,0
		c0,0,0,0,0,0.1c0,0,0,0,0,0c0,0,0,0,0,0.1c0,0,0,0,0,0v13.1C0,20.4,0.6,21,1.4,21H15c0.8,0,1.4-0.6,1.4-1.4v-4.1
		C16.4,15.3,16.2,15.2,16,15.2z M1.3,6.1l4.8-4.8v4.8H1.3z M13.5,0.8v2.7l-1-0.6c-0.1,0-0.1-0.1-0.2-0.1c-0.1,0-0.1,0-0.2,0.1
		l-1,0.6V0.8H13.5z"/>
	<path class="st2" d="M14.2,8.6c0-0.2-0.2-0.4-0.4-0.4H2.5c-0.2,0-0.4,0.2-0.4,0.4s0.2,0.4,0.4,0.4h11.3C14.1,8.9,14.2,8.8,14.2,8.6
		z"/>
	<path class="st2" d="M13.4,10.8c0-0.2-0.2-0.4-0.4-0.4H2.5c-0.2,0-0.4,0.2-0.4,0.4s0.2,0.4,0.4,0.4H13C13.2,11.2,13.4,11,13.4,10.8
		z"/>
	<path class="st2" d="M10.5,13c0-0.2-0.2-0.4-0.4-0.4H2.5c-0.2,0-0.4,0.2-0.4,0.4s0.2,0.4,0.4,0.4h7.6C10.3,13.4,10.5,13.2,10.5,13z
		"/>
	<path class="st2" d="M9,15.3c0-0.2-0.2-0.4-0.4-0.4H2.5c-0.2,0-0.4,0.2-0.4,0.4s0.2,0.4,0.4,0.4h6.1C8.8,15.6,9,15.5,9,15.3z"/>
	<path class="st2" d="M2.5,17.1c-0.2,0-0.4,0.2-0.4,0.4s0.2,0.4,0.4,0.4h4.1c0.2,0,0.4-0.2,0.4-0.4s-0.2-0.4-0.4-0.4H2.5z"/>
	<path class="st2" d="M17.7,10.7c-0.4-0.4-0.8-0.6-1.3-0.6c-0.5,0-1,0.2-1.3,0.6l-1.1,1.1c-0.1,0.1-0.1,0.1-0.1,0.2l-0.1,0.8
		l-0.8,0.8l-0.4-0.4c-0.2-0.2-0.4-0.3-0.6-0.3c-0.2,0-0.5,0.1-0.6,0.3L10.5,14c-0.1,0.1-0.1,0.2-0.1,0.3s0,0.2,0.1,0.3l0.1,0.1
		l-0.6,0.6c-0.1,0.1-0.1,0.2-0.1,0.3c0,0.1,0,0.2,0.1,0.3l0.8,0.8h-2c-0.2,0-0.4,0.2-0.4,0.4v1.2c0,0.2,0.2,0.4,0.4,0.4h4.1
		c0,0,0,0,0,0c0,0,0,0,0,0c0.1,0,0.1-0.1,0.2-0.1l0.6-0.6l0.1,0.1c0.1,0.1,0.2,0.1,0.3,0.1s0.2,0,0.3-0.1l0.8-0.8
		c0.3-0.3,0.3-0.9,0-1.3l-0.4-0.4l0.8-0.8l0.8-0.1c0.1,0,0.2,0,0.2-0.1l1.1-1.1C18.4,12.6,18.4,11.4,17.7,10.7z M11,15.1l2.1,2.1
		l-0.3,0.3l-2.1-2.1L11,15.1z M14.6,16.5L14,17.1l-2.8-2.8l0.5-0.5c0,0,0.1,0,0.1,0c0,0,0.1,0,0.1,0l0.6,0.6c0,0,0,0,0,0l0.6,0.6
		l1.3,1.3C14.6,16.4,14.6,16.5,14.6,16.5z M17.1,12.8l-1,1l-0.8,0.1c-0.1,0-0.2,0-0.2,0.1l-0.9,0.9l-0.8-0.8l0.9-0.9
		c0.1-0.1,0.1-0.1,0.1-0.2l0.1-0.8l1-1c0.2-0.2,0.5-0.3,0.8-0.3c0.3,0,0.6,0.1,0.8,0.3C17.6,11.6,17.6,12.4,17.1,12.8z"/>
</g>
</svg>
