<svg width="88" height="72" viewBox="0 0 88 72" fill="none" xmlns="http://www.w3.org/2000/svg">
<g clip-path="url(#clip0_407_4975)">
<path d="M43.83 1.01H43.86C44.1 1.01 44.34 1.01 44.58 1.03C44.83 1.05 45.09 1.07 45.33 1.1C45.58 1.13 45.83 1.17 46.08 1.21C46.1 1.21 46.11 1.21 46.13 1.21C46.36 1.26 46.59 1.31 46.82 1.37C47.18 1.45 47.55 1.55 47.91 1.69C48.27 1.82 48.62 1.95 48.96 2.11C49.07 2.16 49.19 2.21 49.3 2.27C49.41 2.32 49.53 2.38 49.64 2.43C49.75 2.5 49.86 2.56 49.97 2.62C50.08 2.68 50.19 2.75 50.3 2.81C50.49 2.92 50.68 3.04 50.87 3.16C51.32 3.48 51.75 3.8 52.16 4.17C52.29 4.28 52.39 4.38 52.51 4.49C52.59 4.56 52.65 4.63 52.73 4.7C52.87 4.84 53 4.99 53.14 5.13C53.27 5.27 53.4 5.43 53.53 5.58C53.66 5.74 53.79 5.89 53.9 6.05C54.03 6.22 54.14 6.38 54.25 6.55L54.52 6.97L54.61 7.11C55.78 9.08 56.4 11.33 56.4 13.59C56.4 16.01 55.71 18.45 54.25 20.6L44.09 35.67L43.83 36.04L43.47 36.58L37.29 45.75L24.6 64.55L24.58 64.57L23.99 65.45C20.11 71.19 12.29 72.72 6.53999 68.84C0.779991 64.96 -0.730009 57.15 3.14999 51.39L22.79 22.28C22.79 22.28 22.79 22.26 22.81 22.26L28.22 14.24L33.3 6.71C33.3 6.71 33.34 6.66 33.35 6.63C33.37 6.6 33.38 6.58 33.4 6.55C33.56 6.32 33.72 6.1 33.88 5.89C33.9 5.85 33.93 5.82 33.96 5.79C34.07 5.65 34.19 5.5 34.31 5.36C34.5 5.13 34.71 4.91 34.92 4.69L34.94 4.67C35.1 4.51 35.26 4.35 35.43 4.2C35.5 4.15 35.57 4.09 35.64 4.02C35.77 3.91 35.89 3.81 36.02 3.7C36.06 3.66 36.1 3.63 36.13 3.61C36.26 3.51 36.39 3.41 36.51 3.32C36.59 3.25 36.68 3.19 36.77 3.14C37.19 2.85 37.63 2.6 38.07 2.37C38.27 2.27 38.48 2.17 38.68 2.08C38.68 2.08 38.68 2.08 38.7 2.08C38.93 1.98 39.15 1.89 39.39 1.81C39.63 1.72 39.87 1.64 40.11 1.57C40.35 1.49 40.59 1.43 40.83 1.37C41.07 1.32 41.3 1.26 41.53 1.21C41.56 1.21 41.58 1.21 41.61 1.19C41.85 1.15 42.08 1.11 42.32 1.09C42.56 1.06 42.82 1.04 43.07 1.02C43.31 1 43.55 1 43.79 1H43.82L43.83 1.01Z" fill="#008DE1" stroke="#111F62" stroke-width="2" stroke-miterlimit="10"/>
<path d="M43.83 1.00977H43.86C44.1 1.00977 44.34 1.00977 44.58 1.02977C44.83 1.04977 45.09 1.06977 45.33 1.09977C45.58 1.12977 45.83 1.16977 46.08 1.20977C46.1 1.20977 46.11 1.20977 46.13 1.20977C46.36 1.25977 46.59 1.30977 46.82 1.36977C47.55 1.54977 48.27 1.78977 48.96 2.09977C49.19 2.19977 49.41 2.30977 49.63 2.41977C49.85 2.54977 50.08 2.66977 50.29 2.79977C50.48 2.90977 50.67 3.02977 50.86 3.14977C51.31 3.46977 51.74 3.78977 52.15 4.15977C52.35 4.33977 52.53 4.50977 52.72 4.69977C53.27 5.25977 53.79 5.87977 54.24 6.54977L54.51 6.96977L54.6 7.10977L67.13 25.6798L68.27 27.3798L84.49 51.4098C85.93 53.5598 86.64 56.0198 86.64 58.4298C86.64 60.8398 85.88 63.4498 84.43 65.5498C84.38 65.6298 84.33 65.6898 84.29 65.7298C83.46 66.9198 82.37 67.9898 81.09 68.8598C79.08 70.2098 76.8 70.9198 74.53 70.9998H73.32C69.55 70.7598 65.92 68.8498 63.64 65.4698L54.16 51.4098L53.81 50.8898L48.95 43.6998L48.2 42.5798C48.2 42.5798 48.18 42.5498 48.17 42.5298L43.8 36.0698L43.76 36.0198L33.38 20.6398C30.46 16.2998 30.6 10.7998 33.3 6.69977C33.33 6.64977 33.36 6.60977 33.38 6.56977C33.54 6.34977 33.7 6.12977 33.86 5.92977C34 5.74977 34.13 5.56977 34.29 5.39977C34.48 5.16977 34.69 4.94977 34.9 4.72977L34.92 4.70977C35.14 4.48977 35.37 4.26977 35.62 4.06977C35.75 3.95977 35.87 3.85977 36 3.74977C36.04 3.70977 36.08 3.67977 36.11 3.65977C36.24 3.55977 36.37 3.45977 36.49 3.36977C36.57 3.29977 36.67 3.23977 36.76 3.17977C37.38 2.75977 38.03 2.39977 38.68 2.10977C38.91 2.00977 39.13 1.91977 39.37 1.83977C39.61 1.74977 39.85 1.66977 40.09 1.59977C40.33 1.51977 40.57 1.45977 40.81 1.39977C41.05 1.34977 41.28 1.28977 41.51 1.23977C41.54 1.23977 41.56 1.23977 41.59 1.21977C41.83 1.17977 42.06 1.13977 42.3 1.11977C42.54 1.08977 42.8 1.06977 43.05 1.04977C43.29 1.02977 43.53 1.02977 43.77 1.02977H43.79L43.83 1.00977Z" fill="#3CB4E5" stroke="#111F62" stroke-width="2" stroke-miterlimit="10"/>
<path d="M68.3 27.3701L84.52 51.4001C85.96 53.5501 86.67 56.0101 86.67 58.4201C86.67 60.8301 85.91 63.4401 84.46 65.5401C84.41 65.6201 84.36 65.6801 84.32 65.7201C83.49 66.9101 82.4 67.9801 81.12 68.8401C79.11 70.1901 76.83 70.9001 74.56 70.9801H41.47L53.84 50.8701L65.37 32.1201C65.37 32.1201 65.37 32.1001 65.39 32.1001L67.97 27.9101L68.29 27.3801L68.3 27.3701Z" fill="#8FD6F2" stroke="#111F62" stroke-width="2" stroke-miterlimit="10"/>
</g>
<defs>
<clipPath id="clip0_407_4975">
<rect width="87.67" height="72" fill="white"/>
</clipPath>
</defs>
</svg>
