<svg width="119" height="120" viewBox="0 0 119 120" fill="none" xmlns="http://www.w3.org/2000/svg">
<g clip-path="url(#clip0_436_4977)">
<g filter="url(#filter0_d_436_4977)">
<path d="M0 60.2441C0 10.8591 10.115 0.744141 59.5 0.744141C108.885 0.744141 119 10.8591 119 60.2441C119 109.629 108.885 119.744 59.5 119.744C10.115 119.744 0 109.629 0 60.2441Z" fill="white"/>
</g>
<path d="M47.8944 83.3046L50.4174 80.7642H48.6524L47.8944 83.3046Z" fill="#1D1D1B"/>
<path d="M76.6149 42.9484L78.0952 47.352L90.2224 35.1409L97.56 42.5292V36.6314L90.2224 29.2432L76.6149 42.9484Z" fill="#E6007E"/>
<path d="M63.6298 58.638L63.0035 56.6494L56.2389 63.4608L57.6089 67.8142H57.7726L64.4127 61.1282L63.6298 58.638Z" fill="#E6007E"/>
<path d="M97.5596 81.8715V72.8457L93.0795 77.3604L97.5596 81.8715Z" fill="#FFCC19"/>
<path d="M21.5685 81.8715V72.8457L26.0486 77.3604L21.5685 81.8715Z" fill="#E6007E"/>
<path d="M66.5189 67.8144L65.7396 65.335L63.2771 67.8144H66.5189Z" fill="#B3CC05"/>
<path d="M79.4897 51.4906L79.842 52.5404L80.995 55.8727L90.4 46.4026L97.5596 53.6117V47.714L90.4 40.5049L79.4897 51.4906Z" fill="#B3CC05"/>
<path d="M48.6521 80.7642L47.8942 83.3046L47.0615 86.0958L45.8018 90.3023H40.9445L33.397 97.902L38.0764 97.8661H39.2898L56.2743 80.7642H48.6521Z" fill="#B3CC05"/>
<path d="M83.6457 31.0597L80.7171 28.1108L73.9204 34.9545L75.4043 39.3581L83.6457 31.0597Z" fill="#21B4E9"/>
<path d="M61.8541 53.0018L60.4449 48.5229L57.9647 51.0239L55.3812 59.5194L61.8541 53.0018Z" fill="#21B4E9"/>
<path d="M91.2825 85.6905L97.5596 92.011V86.1133L88.1653 76.6504L91.2825 85.6905Z" fill="#21B4E9"/>
<path d="M82.1904 59.3409L83.6992 63.7194L90.2432 57.1302L96.7552 63.6872L87.9978 72.5051L90.9265 75.454L97.5594 68.7715V58.5992L90.2432 51.2324L82.1904 59.3409Z" fill="#2F328A"/>
<path d="M61.3418 80.7642L44.3217 97.902L47.9371 97.8661H50.2145L67.199 80.7642H61.3418Z" fill="#2F328A"/>
<path d="M81.9056 90.0293L74.1268 97.8655H76.3366H79.9841L87.7629 90.0293H81.9056Z" fill="#E6007E"/>
<path d="M91.0301 90.0298H90.9661L85.1409 89.9976L92.9553 97.866H97.5599V96.6047L91.0301 90.0298Z" fill="#E6007E"/>
<path d="M72.0206 85.6906L70.6399 81.2583L54.1108 97.9017L59.1923 97.8658H60.0037L71.3445 86.443L72.0206 85.6906Z" fill="#FFCC19"/>
<path d="M73.3731 90.0296L72.939 88.6357L63.7368 97.9016L67.5515 97.8657H69.6296L77.412 90.0296H73.3731Z" fill="#21B4E9"/>
<path d="M50.0677 22.3135H44.3208L37.8657 28.8418L40.4705 30.9881L41.1573 31.5184" fill="#21B4E9"/>
<path d="M55.4345 22.3135L47.5703 29.8952H50.99H53.7905L61.3024 22.3314L55.4345 22.3135Z" fill="#B3CC05"/>
<path d="M67.9139 22.3135H65.2415L57.7189 29.8952H62.3627H63.5761L71.0809 22.3135H67.9139Z" fill="#2F328A"/>
<path d="M76.903 22.3135L74.8747 22.3171L67.3485 29.8952H72.2201L72.4763 30.6334L80.707 22.3135H76.903Z" fill="#E6007E"/>
<path d="M97.5596 32.1493V29.7773L96.3817 30.9633L97.5596 32.1493Z" fill="#2F328A"/>
<path d="M86.1654 28.3224L90.2755 24.1804L94.5314 28.4658L97.46 25.5169L94.2965 22.3315H86.2544L83.2368 25.3736L86.1654 28.3224Z" fill="#21B4E9"/>
<path d="M92.8477 63.5363L89.9155 60.5874L84.5031 66.0408L86.0118 70.4158L92.8477 63.5363Z" fill="#FFCC19"/>
<path d="M42.6413 42.9484L41.1574 47.352L29.0337 35.1409L21.6962 42.5292V36.6314L29.0337 29.2432L42.6413 42.9484Z" fill="#2F328A"/>
<path d="M39.7661 51.4906L39.4138 52.5404L38.2608 55.8727L28.8558 46.4026L21.6962 53.6117V47.714L28.8558 40.5049L39.7661 51.4906Z" fill="#21B4E9"/>
<path d="M35.6107 31.0597L38.5393 28.1108L45.3324 34.9545L43.8521 39.3581L35.6107 31.0597Z" fill="#21B4E9"/>
<path d="M27.9733 85.6905L21.6962 92.011V86.1133L31.0905 76.6504L27.9733 85.6905Z" fill="#21B4E9"/>
<path d="M37.0652 59.3409L35.5564 63.7194L29.0088 57.1302L22.5004 63.6872L31.2578 72.5051L28.3291 75.454L21.6962 68.7715V58.5992L29.0088 51.2324L37.0652 59.3409Z" fill="#B3CC05"/>
<path d="M29.6992 90.0298H29.7632L35.5884 89.9976L27.7776 97.866H23.1694H21.6962L29.6992 90.0298Z" fill="#E6007E"/>
<path d="M21.6962 32.1493V29.7773L22.874 30.9633L21.6962 32.1493Z" fill="#21B4E9"/>
<path d="M33.0908 28.3224L28.9808 24.1804L24.7249 28.4658L21.7963 25.5169L24.9597 22.3315H33.0019L36.0195 25.3736L33.0908 28.3224Z" fill="#FFCC19"/>
<path d="M26.4078 63.5363L29.3365 60.5874L34.7524 66.0408L33.2436 70.4158L26.4078 63.5363Z" fill="#2F328A"/>
<path d="M53.239 66.5746L52.8618 67.8144H57.6088L56.2388 63.4609L54.4596 65.2525L53.239 66.5746Z" fill="#E6007E"/>
<path d="M90.9652 90.0298H91.0293L90.9972 89.9976L90.9652 90.0298Z" fill="#1D1D1B"/>
<path d="M84.2688 97.9022H89.1403L86.5889 95.1719L84.2688 97.9022Z" fill="#B3CC05"/>
</g>
<defs>
<filter id="filter0_d_436_4977" x="-2.1045" y="-1.36036" width="123.209" height="123.209" filterUnits="userSpaceOnUse" color-interpolation-filters="sRGB">
<feFlood flood-opacity="0" result="BackgroundImageFix"/>
<feColorMatrix in="SourceAlpha" type="matrix" values="0 0 0 0 0 0 0 0 0 0 0 0 0 0 0 0 0 0 127 0" result="hardAlpha"/>
<feOffset/>
<feGaussianBlur stdDeviation="1.05225"/>
<feComposite in2="hardAlpha" operator="out"/>
<feColorMatrix type="matrix" values="0 0 0 0 0 0 0 0 0 0 0 0 0 0 0 0 0 0 0.12 0"/>
<feBlend mode="normal" in2="BackgroundImageFix" result="effect1_dropShadow_436_4977"/>
<feBlend mode="normal" in="SourceGraphic" in2="effect1_dropShadow_436_4977" result="shape"/>
</filter>
<clipPath id="clip0_436_4977">
<rect width="119" height="119" fill="white" transform="translate(0 0.744141)"/>
</clipPath>
</defs>
</svg>
