<svg width="108" height="33" viewBox="0 0 108 33" fill="none" xmlns="http://www.w3.org/2000/svg">
<path d="M98.6963 0.688579H9.35036C9.02468 0.688579 8.70291 0.688579 8.37809 0.690158C8.10619 0.691736 7.83646 0.696321 7.56195 0.70018C6.96558 0.706416 6.37062 0.753037 5.78222 0.839637C5.19466 0.928122 4.6255 1.09494 4.094 1.33446C3.56314 1.57599 3.07809 1.88985 2.65643 2.26464C2.23255 2.63837 1.87922 3.07035 1.61001 3.54398C1.34007 4.01666 1.15288 4.52318 1.05493 5.04605C0.956049 5.56825 0.902839 6.09648 0.895779 6.62599C0.887538 6.86796 0.886667 7.11073 0.882324 7.35272V25.5941C0.886667 25.8392 0.887538 26.0766 0.895779 26.3217C0.902841 26.8512 0.956051 27.3794 1.05493 27.9016C1.15261 28.4247 1.33981 28.9315 1.61001 29.4044C1.87909 29.8765 2.23248 30.3067 2.65643 30.6784C3.07649 31.0548 3.56186 31.3689 4.094 31.6086C4.6255 31.8488 5.19459 32.0166 5.78222 32.1064C6.37072 32.1923 6.96562 32.239 7.56195 32.2459C7.83646 32.2513 8.10619 32.2544 8.37809 32.2544C8.7029 32.256 9.0247 32.256 9.35036 32.256H98.6963C99.0155 32.256 99.3398 32.256 99.659 32.2544C99.9296 32.2544 100.207 32.2513 100.478 32.2459C101.073 32.2393 101.667 32.1927 102.254 32.1064C102.844 32.0159 103.415 31.8482 103.949 31.6086C104.48 31.3688 104.965 31.0547 105.385 30.6784C105.808 30.3053 106.162 29.8754 106.434 29.4044C106.703 28.9312 106.888 28.4244 106.984 27.9016C107.083 27.3793 107.138 26.8512 107.149 26.3217C107.153 26.0766 107.153 25.8392 107.153 25.5941C107.16 25.3074 107.16 25.0223 107.16 24.7309V8.21435C107.16 7.92534 107.16 7.63864 107.153 7.35272C107.153 7.11073 107.153 6.86796 107.149 6.62596C107.138 6.09641 107.083 5.56829 106.984 5.04602C106.888 4.52345 106.702 4.01697 106.434 3.54394C105.886 2.59461 105.017 1.82187 103.949 1.33438C103.415 1.09546 102.844 0.928681 102.254 0.839566C101.667 0.752584 101.073 0.705947 100.478 0.70007C100.207 0.696218 99.9296 0.691594 99.659 0.690055C99.3398 0.688477 99.0155 0.688579 98.6963 0.688579Z" fill="#A6A6A6"/>
<path d="M8.13143 31.6179C7.8609 31.6179 7.59691 31.6149 7.32851 31.6095C6.7725 31.6031 6.21778 31.5604 5.66891 31.4817C5.15712 31.4038 4.66133 31.2591 4.1979 31.0521C3.73872 30.8469 3.31991 30.5778 2.95751 30.2551C2.58987 29.9362 2.28379 29.5664 2.05141 29.1603C1.81646 28.7515 1.65386 28.3133 1.56928 27.861C1.47794 27.3751 1.42852 26.8837 1.42145 26.3911C1.41582 26.2257 1.40845 25.6752 1.40845 25.6752V7.56464C1.40845 7.56464 1.4163 7.02259 1.42149 6.86334C1.42826 6.37153 1.47739 5.88088 1.56846 5.39565C1.6532 4.94213 1.81593 4.50271 2.051 4.09259C2.28253 3.68673 2.58691 3.31662 2.95234 2.99661C3.31735 2.67356 3.7375 2.40307 4.19747 2.19501C4.65983 1.98873 5.15468 1.84497 5.66544 1.76856C6.21611 1.68904 6.77275 1.64605 7.3307 1.63994L8.13186 1.63037H99.3795L100.19 1.64033C100.743 1.64613 101.295 1.68874 101.84 1.7678C102.356 1.84516 102.856 1.98992 103.324 2.1973C104.245 2.61662 104.995 3.28001 105.468 4.0945C105.7 4.50179 105.86 4.93763 105.943 5.38723C106.036 5.87644 106.087 6.37094 106.098 6.86679C106.1 7.08881 106.1 7.3273 106.1 7.56464C106.107 7.85864 106.107 8.13847 106.107 8.42059V24.8284C106.107 25.1132 106.107 25.3912 106.1 25.6714C106.1 25.9263 106.1 26.1599 106.097 26.4002C106.086 26.8872 106.036 27.3729 105.945 27.8534C105.862 28.3089 105.701 28.7505 105.466 29.1626C105.232 29.5644 104.927 29.931 104.564 30.249C104.201 30.5734 103.782 30.8441 103.321 31.0506C102.855 31.2592 102.356 31.4045 101.84 31.4817C101.292 31.5608 100.737 31.6036 100.181 31.6095C99.9206 31.6149 99.6483 31.6179 99.3839 31.6179L98.4214 31.6195L8.13143 31.6179Z" fill="black"/>
<path d="M30.7342 7.68991C31.0417 7.66785 31.3503 7.7143 31.6376 7.82592C31.925 7.93753 32.184 8.11153 32.3959 8.33537C32.6079 8.5592 32.7675 8.82729 32.8633 9.12029C32.9592 9.41329 32.9887 9.72391 32.95 10.0297C32.95 11.5341 32.1369 12.3989 30.7342 12.3989H29.0333V7.68991H30.7342ZM29.7647 11.7329H30.6525C30.8723 11.7461 31.0921 11.71 31.2962 11.6275C31.5002 11.5449 31.6833 11.4179 31.832 11.2557C31.9808 11.0934 32.0915 10.9001 32.1561 10.6897C32.2207 10.4792 32.2376 10.2571 32.2055 10.0393C32.2352 9.82243 32.2167 9.60164 32.1511 9.39277C32.0855 9.1839 31.9745 8.99212 31.8261 8.83118C31.6776 8.67024 31.4955 8.54413 31.2926 8.46186C31.0897 8.3796 30.8711 8.34323 30.6525 8.35536H29.7647V11.7329Z" fill="white"/>
<path d="M36.9576 11.4392C36.8623 11.764 36.6558 12.0449 36.3743 12.2328C36.0928 12.4208 35.7542 12.5038 35.4177 12.4673C35.1836 12.4734 34.9509 12.4286 34.7359 12.3359C34.5208 12.2431 34.3285 12.1047 34.1723 11.9301C34.0161 11.7556 33.8998 11.5492 33.8314 11.3252C33.763 11.1012 33.7441 10.865 33.7761 10.633C33.745 10.4003 33.7642 10.1636 33.8324 9.93894C33.9007 9.71428 34.0164 9.50691 34.1718 9.33086C34.3271 9.15481 34.5185 9.0142 34.7329 8.91855C34.9474 8.82289 35.1798 8.77442 35.4146 8.77643C36.4034 8.77643 36.9999 9.45197 36.9999 10.5679V10.8126H34.4906V10.8519C34.4796 10.9823 34.496 11.1136 34.5387 11.2373C34.5814 11.361 34.6495 11.4744 34.7386 11.5703C34.8278 11.6661 34.9359 11.7423 35.0562 11.7939C35.1764 11.8455 35.3062 11.8714 35.437 11.87C35.6048 11.8901 35.7747 11.8599 35.9253 11.7832C36.0758 11.7065 36.2002 11.5867 36.2825 11.4391L36.9576 11.4392ZM34.4906 10.2939H36.2855C36.2943 10.1747 36.2781 10.0549 36.2379 9.94223C36.1977 9.82959 36.1344 9.72662 36.052 9.63992C35.9696 9.55323 35.87 9.48472 35.7596 9.43881C35.6491 9.3929 35.5303 9.3706 35.4108 9.37334C35.2895 9.37182 35.1691 9.3946 35.0567 9.44033C34.9444 9.48606 34.8423 9.55382 34.7566 9.63961C34.6708 9.72541 34.6031 9.8275 34.5574 9.93988C34.5118 10.0523 34.489 10.1726 34.4906 10.2939Z" fill="white"/>
<path d="M39.2403 8.77637C40.0395 8.77637 40.5621 9.14822 40.6307 9.7748H39.9578C39.8931 9.51392 39.638 9.34745 39.2403 9.34745C38.8488 9.34745 38.5514 9.53319 38.5514 9.81064C38.5514 10.0229 38.7309 10.1567 39.1163 10.2449L39.7066 10.3817C40.3825 10.5386 40.6992 10.8291 40.6992 11.3512C40.6992 12.0202 40.0758 12.4672 39.2272 12.4672C38.3818 12.4672 37.8307 12.0853 37.7683 11.4557H38.4704C38.5309 11.6055 38.64 11.7307 38.7802 11.8112C38.9204 11.8916 39.0835 11.9226 39.2434 11.8992C39.6804 11.8992 39.991 11.7035 39.991 11.4194C39.991 11.2075 39.8245 11.0703 39.4685 10.9855L38.8488 10.8418C38.1729 10.6819 37.86 10.3786 37.86 9.84993C37.86 9.2199 38.4373 8.77637 39.2403 8.77637Z" fill="white"/>
<path d="M43.9708 10.0064C43.9261 9.82214 43.8169 9.65997 43.6629 9.54928C43.5089 9.43858 43.3204 9.38668 43.1315 9.40297C42.5443 9.40297 42.1851 9.85305 42.1851 10.6103C42.1851 11.3806 42.5473 11.8407 43.1315 11.8407C43.3186 11.8623 43.5071 11.8149 43.6617 11.7073C43.8162 11.5998 43.9262 11.4394 43.9708 11.2565H44.6529C44.6078 11.6163 44.4239 11.9443 44.1404 12.1705C43.8569 12.3967 43.4962 12.5032 43.1354 12.4672C42.8978 12.4747 42.6614 12.4302 42.4428 12.3368C42.2241 12.2435 42.0286 12.1034 41.8697 11.9266C41.7109 11.7497 41.5926 11.5402 41.5231 11.3129C41.4537 11.0855 41.4347 10.8457 41.4676 10.6103C41.4364 10.3766 41.4565 10.1389 41.5266 9.91374C41.5968 9.68861 41.7152 9.48151 41.8736 9.30689C42.0321 9.13227 42.2267 8.99433 42.444 8.90271C42.6612 8.81109 42.8959 8.76799 43.1315 8.77642C43.4954 8.74291 43.8579 8.85269 44.142 9.08241C44.4262 9.31213 44.6094 9.64366 44.6529 10.0064L43.9708 10.0064Z" fill="white"/>
<path d="M45.3488 11.3938C45.3488 10.7541 45.825 10.3854 46.6705 10.333L47.6331 10.2775V9.97073C47.6331 9.5954 47.3849 9.38346 46.9056 9.38346C46.514 9.38346 46.2428 9.5272 46.1649 9.77845H45.4859C45.5576 9.16806 46.1318 8.77655 46.9379 8.77655C47.8288 8.77655 48.3313 9.22007 48.3313 9.97073V12.3988H47.6562V11.8994H47.6007C47.4881 12.0785 47.3299 12.2246 47.1424 12.3226C46.9549 12.4206 46.7447 12.4671 46.5333 12.4573C46.3841 12.4729 46.2333 12.4569 46.0907 12.4106C45.948 12.3643 45.8167 12.2886 45.7051 12.1884C45.5935 12.0882 45.5041 11.9657 45.4427 11.8289C45.3814 11.692 45.3493 11.5438 45.3488 11.3938ZM47.6331 11.0902V10.7931L46.7653 10.8485C46.2759 10.8813 46.0539 11.0478 46.0539 11.361C46.0539 11.6809 46.3314 11.867 46.7129 11.867C46.8247 11.8783 46.9376 11.867 47.0449 11.8338C47.1523 11.8006 47.2518 11.7461 47.3377 11.6737C47.4235 11.6012 47.4939 11.5122 47.5447 11.4119C47.5954 11.3117 47.6255 11.2023 47.6331 11.0902ZM46.5171 8.25093L47.3364 7.12842H48.1587L47.2416 8.25093H46.5171Z" fill="white"/>
<path d="M49.4296 8.84483H50.1047V9.38971H50.1571C50.2327 9.20056 50.3663 9.04023 50.5386 8.93174C50.711 8.82325 50.9134 8.77218 51.1166 8.78587C51.2217 8.78446 51.3265 8.79428 51.4295 8.81516V9.50727C51.3008 9.47977 51.1696 9.46557 51.038 9.46489C50.9223 9.4545 50.8058 9.46843 50.6958 9.50577C50.5858 9.54311 50.4849 9.60305 50.3994 9.68173C50.314 9.76041 50.246 9.85608 50.1997 9.96262C50.1535 10.0691 50.13 10.1842 50.1309 10.3003V12.3985H49.4296L49.4296 8.84483Z" fill="white"/>
<path d="M52.0738 12.7542H52.7918C52.8511 13.012 53.1478 13.1785 53.621 13.1785C54.2052 13.1785 54.5512 12.901 54.5512 12.4313V11.7492H54.4988C54.3888 11.9401 54.2282 12.0969 54.0346 12.2023C53.8411 12.3076 53.6222 12.3574 53.4021 12.3461C52.495 12.3461 51.9336 11.6448 51.9336 10.5808C51.9336 9.49728 52.5012 8.7859 53.4091 8.7859C53.6347 8.77805 53.858 8.83234 54.0549 8.94284C54.2517 9.05334 54.4143 9.2158 54.525 9.41248H54.5805V8.84486H55.2526V12.4278C55.2526 13.2405 54.616 13.7561 53.611 13.7561C52.7232 13.7561 52.1486 13.358 52.0738 12.7542ZM54.5643 10.5774C54.5643 9.86947 54.1983 9.41594 53.601 9.41594C52.9975 9.41594 52.6584 9.8695 52.6584 10.5774C52.6584 11.2856 52.9975 11.7392 53.601 11.7392C54.2021 11.7392 54.5643 11.2891 54.5643 10.5774Z" fill="white"/>
<path d="M56.1674 11.3936C56.1674 10.754 56.6437 10.3852 57.4891 10.3328L58.4517 10.2773V9.97055C58.4517 9.59522 58.2035 9.38328 57.7242 9.38328C57.3327 9.38328 57.0614 9.52702 56.9835 9.77826H56.3045C56.3762 9.16788 56.9504 8.77637 57.7565 8.77637C58.6474 8.77637 59.1499 9.21989 59.1499 9.97055V12.3986H58.4748V11.8992H58.4193C58.3067 12.0783 58.1485 12.2244 57.961 12.3224C57.7735 12.4204 57.5633 12.4669 57.3519 12.4572C57.2027 12.4727 57.052 12.4568 56.9093 12.4104C56.7666 12.3641 56.6353 12.2884 56.5237 12.1882C56.4121 12.088 56.3227 11.9655 56.2613 11.8287C56.2 11.6918 56.1679 11.5436 56.1674 11.3936ZM58.4517 11.09V10.7929L57.5839 10.8484C57.0945 10.8811 56.8725 11.0476 56.8725 11.3609C56.8725 11.6807 57.15 11.8668 57.5315 11.8668C57.6433 11.8781 57.7562 11.8669 57.8635 11.8336C57.9709 11.8004 58.0704 11.7459 58.1563 11.6735C58.2421 11.601 58.3125 11.512 58.3633 11.4117C58.414 11.3115 58.4441 11.2021 58.4517 11.09Z" fill="white"/>
<path d="M60.2805 7.45752H60.9818V12.3984H60.2805V7.45752Z" fill="white"/>
<path d="M61.9568 10.6202C61.9344 10.3867 61.9612 10.151 62.0352 9.92844C62.1093 9.70584 62.229 9.50117 62.3868 9.32756C62.5446 9.15395 62.7369 9.01524 62.9515 8.92032C63.166 8.8254 63.398 8.77637 63.6326 8.77637C63.8672 8.77637 64.0993 8.8254 64.3138 8.92032C64.5283 9.01524 64.7207 9.15395 64.8785 9.32756C65.0363 9.50117 65.156 9.70584 65.2301 9.92844C65.3041 10.151 65.3309 10.3867 65.3085 10.6202C65.3313 10.854 65.3049 11.0899 65.231 11.3129C65.1572 11.5359 65.0375 11.7409 64.8796 11.9149C64.7218 12.0888 64.5293 12.2278 64.3146 12.3229C64.0998 12.4181 63.8675 12.4672 63.6326 12.4672C63.3978 12.4672 63.1655 12.4181 62.9507 12.3229C62.736 12.2278 62.5435 12.0888 62.3857 11.9149C62.2278 11.7409 62.1081 11.5359 62.0343 11.3129C61.9604 11.0899 61.934 10.854 61.9568 10.6202ZM64.5871 10.6202C64.5871 9.8499 64.2411 9.39944 63.6338 9.39944C63.0242 9.39944 62.6813 9.84991 62.6813 10.6202C62.6813 11.3967 63.0242 11.8437 63.6338 11.8437C64.2411 11.8437 64.5871 11.3936 64.5871 10.6202Z" fill="white"/>
<path d="M71.1828 11.4392C71.0875 11.764 70.881 12.0449 70.5995 12.2328C70.318 12.4208 69.9794 12.5038 69.6429 12.4673C69.4088 12.4734 69.1761 12.4286 68.9611 12.3359C68.746 12.2431 68.5537 12.1047 68.3976 11.9301C68.2414 11.7556 68.125 11.5492 68.0566 11.3252C67.9882 11.1012 67.9693 10.865 68.0014 10.633C67.9702 10.4003 67.9894 10.1636 68.0576 9.93894C68.1259 9.71428 68.2416 9.50691 68.397 9.33086C68.5523 9.15481 68.7437 9.0142 68.9581 8.91855C69.1726 8.82289 69.4051 8.77442 69.6398 8.77643C70.6286 8.77643 71.2252 9.45197 71.2252 10.5679V10.8126H68.7158V10.8519C68.7048 10.9823 68.7212 11.1136 68.7639 11.2373C68.8066 11.361 68.8747 11.4744 68.9638 11.5703C69.0529 11.6661 69.1611 11.7423 69.2813 11.7939C69.4016 11.8455 69.5313 11.8714 69.6622 11.87C69.83 11.8901 69.9999 11.8599 70.1505 11.7832C70.301 11.7065 70.4253 11.5867 70.5076 11.4391L71.1828 11.4392ZM68.7158 10.2939H70.5107C70.5195 10.1747 70.5033 10.0549 70.4631 9.94223C70.4229 9.82959 70.3596 9.72662 70.2772 9.63992C70.1948 9.55323 70.0952 9.48472 69.9848 9.43881C69.8743 9.3929 69.7555 9.3706 69.636 9.37334C69.5147 9.37181 69.3943 9.39459 69.2819 9.44032C69.1696 9.48605 69.0675 9.55381 68.9818 9.63961C68.896 9.7254 68.8283 9.82749 68.7826 9.93987C68.7369 10.0522 68.7142 10.1726 68.7158 10.2939Z" fill="white"/>
<path d="M72.1669 8.84504H72.842V9.40957H72.8944C72.9833 9.20681 73.1333 9.03685 73.3234 8.92336C73.5134 8.80987 73.7342 8.75851 73.9549 8.77645C74.1278 8.76345 74.3014 8.78952 74.4629 8.85273C74.6243 8.91594 74.7695 9.01467 74.8876 9.14161C75.0058 9.26854 75.0938 9.42043 75.1453 9.58602C75.1967 9.7516 75.2103 9.92665 75.1849 10.0982V12.3987H74.4836V10.2743C74.4836 9.70321 74.2354 9.41921 73.7167 9.41921C73.5993 9.41374 73.4821 9.43372 73.3732 9.47778C73.2642 9.52184 73.1661 9.58894 73.0855 9.67448C73.0049 9.76001 72.9438 9.86196 72.9063 9.97334C72.8687 10.0847 72.8558 10.2029 72.8682 10.3198V12.3987H72.1669V8.84504Z" fill="white"/>
<path d="M81.2025 11.4392C81.1073 11.764 80.9008 12.0449 80.6193 12.2328C80.3378 12.4208 79.9992 12.5038 79.6627 12.4673C79.4286 12.4734 79.1959 12.4286 78.9809 12.3359C78.7658 12.2431 78.5735 12.1047 78.4173 11.9301C78.2611 11.7556 78.1448 11.5492 78.0764 11.3252C78.008 11.1012 77.9891 10.865 78.0211 10.633C77.99 10.4003 78.0091 10.1636 78.0774 9.93894C78.1457 9.71428 78.2614 9.50691 78.4167 9.33086C78.5721 9.15481 78.7635 9.0142 78.9779 8.91855C79.1924 8.82289 79.4248 8.77442 79.6596 8.77643C80.6484 8.77643 81.2449 9.45197 81.2449 10.5679V10.8126H78.7356V10.8519C78.7246 10.9823 78.741 11.1136 78.7837 11.2373C78.8264 11.361 78.8945 11.4744 78.9836 11.5703C79.0727 11.6661 79.1809 11.7423 79.3011 11.7939C79.4214 11.8455 79.5511 11.8714 79.682 11.87C79.8497 11.8901 80.0197 11.8599 80.1702 11.7832C80.3208 11.7065 80.4451 11.5867 80.5274 11.4391L81.2025 11.4392ZM78.7355 10.2939H80.5305C80.5393 10.1747 80.5231 10.0549 80.4829 9.94223C80.4427 9.82959 80.3794 9.72662 80.297 9.63992C80.2146 9.55323 80.115 9.48472 80.0046 9.43881C79.8941 9.3929 79.7753 9.3706 79.6557 9.37334C79.5345 9.37181 79.4141 9.39459 79.3017 9.44032C79.1894 9.48605 79.0873 9.5538 79.0015 9.6396C78.9158 9.72539 78.8481 9.82749 78.8024 9.93987C78.7567 10.0522 78.734 10.1726 78.7355 10.2939Z" fill="white"/>
<path d="M82.219 7.45752H82.9203V12.3984H82.219V7.45752Z" fill="white"/>
<path d="M20.4296 16.8204C20.438 16.1617 20.613 15.5158 20.9382 14.9429C21.2633 14.37 21.7281 13.8886 22.2893 13.5436C21.9328 13.0345 21.4625 12.6155 20.9157 12.3199C20.369 12.0243 19.7608 11.8603 19.1396 11.8408C17.8143 11.7017 16.5296 12.6338 15.8542 12.6338C15.1659 12.6338 14.1261 11.8546 13.0065 11.8777C12.2822 11.9011 11.5764 12.1117 10.9578 12.4889C10.3392 12.8662 9.82884 13.3973 9.47649 14.0305C7.9502 16.673 9.08868 20.5566 10.5507 22.6926C11.2822 23.7386 12.1371 24.9069 13.2558 24.8655C14.3504 24.8201 14.7593 24.1675 16.0806 24.1675C17.3897 24.1675 17.7732 24.8655 18.9146 24.8392C20.0892 24.8201 20.8292 23.7886 21.5351 22.7327C22.0606 21.9874 22.4651 21.1637 22.7334 20.2921C22.051 20.0035 21.4686 19.5204 21.0589 18.903C20.6492 18.2856 20.4304 17.5613 20.4296 16.8204Z" fill="white"/>
<path d="M18.2738 10.4364C18.9143 9.66756 19.2298 8.67936 19.1534 7.68164C18.1749 7.78441 17.2711 8.25205 16.622 8.99138C16.3046 9.35257 16.0616 9.77276 15.9067 10.2279C15.7518 10.6831 15.6882 11.1644 15.7194 11.6441C16.2088 11.6492 16.693 11.5431 17.1354 11.3339C17.5779 11.1247 17.9671 10.8178 18.2738 10.4364Z" fill="white"/>
<path d="M34.2665 22.2177H30.5309L29.6339 24.8665H28.0516L31.5899 15.0664H33.2338L36.772 24.8665H35.1628L34.2665 22.2177ZM30.9178 20.9953H33.8789L32.4192 16.6964H32.3783L30.9178 20.9953Z" fill="white"/>
<path d="M44.4134 21.2945C44.4134 23.5149 43.225 24.9414 41.4316 24.9414C40.9773 24.9652 40.5255 24.8605 40.128 24.6395C39.7304 24.4184 39.4031 24.0898 39.1835 23.6913H39.1496V27.2304H37.683V17.7216H39.1026V18.91H39.1296C39.3592 18.5135 39.692 18.1866 40.0926 17.9641C40.4933 17.7417 40.9467 17.6321 41.4047 17.6468C43.2181 17.6468 44.4134 19.0803 44.4134 21.2945ZM42.906 21.2945C42.906 19.8479 42.1584 18.8969 41.0178 18.8969C39.8972 18.8969 39.1435 19.868 39.1435 21.2945C39.1435 22.7342 39.8972 23.6983 41.0178 23.6983C42.1584 23.6983 42.906 22.7542 42.906 21.2945Z" fill="white"/>
<path d="M52.2776 21.2945C52.2776 23.5149 51.0892 24.9414 49.2958 24.9414C48.8415 24.9652 48.3897 24.8605 47.9921 24.6394C47.5945 24.4184 47.2672 24.0898 47.0477 23.6913H47.0137V27.2304H45.5471V17.7216H46.9667V18.91H46.9937C47.2233 18.5134 47.5561 18.1866 47.9568 17.9641C48.3574 17.7417 48.8108 17.6321 49.2688 17.6468C51.0822 17.6468 52.2776 19.0803 52.2776 21.2945ZM50.7701 21.2945C50.7701 19.8479 50.0225 18.8969 48.8819 18.8969C47.7613 18.8969 47.0076 19.868 47.0076 21.2945C47.0076 22.7342 47.7613 23.6983 48.8819 23.6983C50.0225 23.6983 50.7701 22.7542 50.7701 21.2945Z" fill="white"/>
<path d="M57.4752 22.1358C57.5839 23.1076 58.528 23.7457 59.8181 23.7457C61.0543 23.7457 61.9437 23.1076 61.9437 22.2313C61.9437 21.4707 61.4073 21.0152 60.1372 20.7031L58.8671 20.3971C57.0675 19.9624 56.2321 19.1208 56.2321 17.7552C56.2321 16.0643 57.7056 14.9028 59.7981 14.9028C61.8689 14.9028 63.2885 16.0643 63.3363 17.7552H61.8558C61.7672 16.7772 60.9587 16.1868 59.7772 16.1868C58.5958 16.1868 57.7873 16.7841 57.7873 17.6534C57.7873 18.3463 58.3037 18.754 59.5668 19.0661L60.6466 19.3312C62.6573 19.8067 63.4927 20.6144 63.4927 22.0479C63.4927 23.8814 62.0323 25.0297 59.7094 25.0297C57.5361 25.0297 56.0687 23.9083 55.9739 22.1357L57.4752 22.1358Z" fill="white"/>
<path d="M66.658 16.0308V17.7217H68.0167V18.8831H66.658V22.8221C66.658 23.434 66.93 23.7192 67.5273 23.7192C67.6886 23.7164 67.8496 23.705 68.0097 23.6852V24.8397C67.7412 24.8899 67.4683 24.9126 67.1951 24.9076C65.7485 24.9076 65.1844 24.3642 65.1844 22.9785V18.8831H64.1455V17.7217H65.1844V16.0308H66.658Z" fill="white"/>
<path d="M68.8035 21.2946C68.8035 19.0465 70.1275 17.6338 72.1922 17.6338C74.2638 17.6338 75.5817 19.0464 75.5817 21.2946C75.5817 23.5488 74.2707 24.9553 72.1922 24.9553C70.1144 24.9553 68.8035 23.5488 68.8035 21.2946ZM74.0873 21.2946C74.0873 19.7524 73.3806 18.8422 72.1922 18.8422C71.0038 18.8422 70.2978 19.7594 70.2978 21.2946C70.2978 22.8429 71.0038 23.7461 72.1922 23.7461C73.3806 23.7461 74.0873 22.8429 74.0873 21.2946Z" fill="white"/>
<path d="M76.7909 17.7215H78.1897V18.9377H78.2236C78.3183 18.5578 78.5408 18.2222 78.8538 17.9871C79.1668 17.752 79.5511 17.6318 79.9423 17.6467C80.1113 17.6462 80.2798 17.6645 80.4448 17.7015V19.0733C80.2314 19.0081 80.0088 18.9782 79.7858 18.9847C79.5727 18.976 79.3603 19.0136 79.1632 19.0948C78.966 19.176 78.7887 19.2989 78.6435 19.4551C78.4983 19.6112 78.3887 19.797 78.322 19.9995C78.2554 20.2021 78.2334 20.4167 78.2575 20.6286V24.8666H76.7909L76.7909 17.7215Z" fill="white"/>
<path d="M87.2069 22.7681C87.0096 24.0652 85.7464 24.9553 84.1303 24.9553C82.0517 24.9553 80.7616 23.5627 80.7616 21.3285C80.7616 19.0873 82.0587 17.6338 84.0686 17.6338C86.0454 17.6338 87.2886 18.9917 87.2886 21.1582V21.6606H82.2421V21.7493C82.2188 22.0122 82.2517 22.2771 82.3387 22.5264C82.4256 22.7756 82.5646 23.0036 82.7464 23.195C82.9282 23.3864 83.1486 23.5369 83.3931 23.6366C83.6375 23.7363 83.9004 23.7828 84.1642 23.7731C84.5108 23.8056 84.8586 23.7253 85.1559 23.5442C85.4532 23.3632 85.6841 23.091 85.8143 22.7681L87.2069 22.7681ZM82.249 20.6356H85.8212C85.8343 20.3992 85.7985 20.1626 85.7159 19.9407C85.6333 19.7187 85.5057 19.5163 85.3411 19.346C85.1766 19.1757 84.9786 19.0413 84.7596 18.9511C84.5406 18.861 84.3054 18.8171 84.0686 18.8222C83.8298 18.8208 83.593 18.8667 83.372 18.9572C83.151 19.0478 82.9502 19.1812 82.781 19.3498C82.6118 19.5184 82.4777 19.7188 82.3864 19.9395C82.2951 20.1602 82.2484 20.3968 82.249 20.6356Z" fill="white"/>
</svg>
