<?xml version="1.0" encoding="utf-8"?>
<!-- Generator: Adobe Illustrator 28.3.0, SVG Export Plug-In . SVG Version: 6.00 Build 0)  -->
<svg version="1.1" id="Capa_1" xmlns="http://www.w3.org/2000/svg" xmlns:xlink="http://www.w3.org/1999/xlink" x="0px" y="0px"
	 viewBox="0 0 20.8 21" style="enable-background:new 0 0 20.8 21;" xml:space="preserve">
<style type="text/css">
	.st0{fill:#3CB4E5;}
	.st1{fill:#DF1683;}
	.st2{fill:#C2D500;}
	.st3{fill:none;stroke:#3CB4E5;stroke-width:10;stroke-linecap:round;stroke-linejoin:round;stroke-miterlimit:10;}
	.st4{fill:none;stroke:#3CB4E5;stroke-width:10;stroke-linecap:round;stroke-linejoin:round;}
	.st5{fill:none;stroke:#3CB4E5;stroke-width:10;stroke-linecap:round;stroke-linejoin:round;stroke-dasharray:24.0556,24.0556;}
	.st6{fill:none;stroke:#3CB4E5;stroke-width:10;stroke-linecap:round;stroke-linejoin:round;stroke-dasharray:51.256,20.1004;}
	.st7{fill:none;stroke:#DF1683;stroke-width:10;stroke-linecap:round;stroke-linejoin:round;stroke-miterlimit:10;}
	.st8{fill:none;stroke:#C2D500;stroke-width:10;stroke-linecap:round;stroke-linejoin:round;stroke-miterlimit:10;}
	.st9{fill:none;stroke:#C2D500;stroke-width:10;stroke-miterlimit:10;}
	.st10{fill:#C2D500;stroke:#C2D500;stroke-width:10;stroke-linecap:round;stroke-linejoin:round;stroke-miterlimit:10;}
	.st11{fill:none;stroke:#DF1683;stroke-width:10;stroke-miterlimit:10;}
</style>
<g>
	<path class="st0" d="M4.3,8.4H7c0.2,0,0.4-0.2,0.4-0.4V5.3C7.3,5.1,7.2,5,7,5H4.3C4.1,5,3.9,5.1,3.9,5.3V8C3.9,8.2,4.1,8.4,4.3,8.4
		z M4.7,5.7h1.9v1.9H4.7V5.7z"/>
	<path class="st0" d="M9.9,7.9C10,8,10.1,8,10.2,8s0.2,0,0.3-0.1L12.4,6c0.1-0.1,0.1-0.4,0-0.5c-0.1-0.1-0.4-0.1-0.5,0l-1.6,1.6
		L9.6,6.5C9.4,6.3,9.2,6.3,9,6.5C8.9,6.6,8.9,6.9,9,7L9.9,7.9z"/>
	<path class="st0" d="M4.3,12.8H7c0.2,0,0.4-0.2,0.4-0.4V9.8c0-0.2-0.2-0.4-0.4-0.4H4.3c-0.2,0-0.4,0.2-0.4,0.4v2.7
		C3.9,12.7,4.1,12.8,4.3,12.8z M4.7,10.2h1.9v1.9H4.7V10.2z"/>
	<path class="st0" d="M9.9,12.4c0.1,0.1,0.2,0.1,0.3,0.1s0.2,0,0.3-0.1l1.9-1.9c0.1-0.1,0.1-0.4,0-0.5c-0.1-0.1-0.4-0.1-0.5,0
		l-1.6,1.6l-0.6-0.6c-0.1-0.1-0.4-0.1-0.5,0c-0.1,0.1-0.1,0.4,0,0.5L9.9,12.4z"/>
	<path class="st0" d="M4.3,17.3H7c0.2,0,0.4-0.2,0.4-0.4v-2.7c0-0.2-0.2-0.4-0.4-0.4H4.3c-0.2,0-0.4,0.2-0.4,0.4v2.7
		C3.9,17.1,4.1,17.3,4.3,17.3z M4.7,14.6h1.9v1.9H4.7V14.6z"/>
	<path class="st0" d="M11.9,14.4c-0.1-0.1-0.4-0.1-0.5,0l-0.7,0.7L10,14.4c-0.1-0.1-0.4-0.1-0.5,0c-0.1,0.1-0.1,0.4,0,0.5l0.7,0.7
		l-0.7,0.7c-0.1,0.1-0.1,0.4,0,0.5c0.1,0.1,0.2,0.1,0.3,0.1s0.2,0,0.3-0.1l0.7-0.7l0.7,0.7c0.1,0.1,0.2,0.1,0.3,0.1s0.2,0,0.3-0.1
		c0.1-0.1,0.1-0.4,0-0.5l-0.7-0.7l0.7-0.7C12.1,14.7,12.1,14.5,11.9,14.4z"/>
	<path class="st0" d="M20.4,5.6C19.8,5.1,19,5,18.5,5.5l-2.1,2.1V1.4C16.4,0.6,15.8,0,15,0H1.4C0.6,0,0,0.6,0,1.4v18.2
		C0,20.4,0.6,21,1.4,21H15c0.8,0,1.4-0.6,1.4-1.4v-8l4.1-4.1C21,7,20.9,6.2,20.4,5.6z M19.9,6.1c0.3,0.3,0.3,0.6,0.1,0.8l-0.1,0.1
		l-0.9-0.9L19.1,6C19.2,5.8,19.6,5.9,19.9,6.1z M14.7,12.3l-0.9-0.9l1-1c0,0,0,0,0,0l1.6-1.6c0,0,0,0,0,0l2.1-2.1l0.9,0.9L14.7,12.3
		z M4.8,2.4c0.1,0.8,0.7,1.4,1.5,1.4h3.9c0.8,0,1.4-0.6,1.5-1.4H14c0,0,0.1,0,0.1,0.1v7.5l-1.2,1.2c0,0,0,0,0,0.1c0,0,0,0,0,0
		c0,0,0,0,0,0.1c0,0,0,0,0,0c0,0,0,0,0,0l-0.6,2.1c0,0.1,0,0.3,0.1,0.4c0.1,0.1,0.2,0.1,0.3,0.1c0,0,0.1,0,0.1,0l1.4-0.4v5.1
		c0,0,0,0.1-0.1,0.1H2.4c0,0-0.1,0-0.1-0.1V2.4c0,0,0-0.1,0.1-0.1H4.8z M10.9,2.2c0,0.4-0.3,0.7-0.7,0.7H6.2C5.8,3,5.5,2.7,5.5,2.2
		V0.8h5.4V2.2z M13.4,12l0.6,0.6l-0.8,0.3L13.4,12z M15.7,1.4v7l-0.8,0.8V2.4c0-0.5-0.4-0.8-0.8-0.8h-2.4V0.8H15
		C15.4,0.8,15.7,1,15.7,1.4z M15.7,19.6c0,0.3-0.3,0.6-0.6,0.6H1.4c-0.3,0-0.6-0.3-0.6-0.6V1.4C0.8,1,1,0.8,1.4,0.8h3.4v0.9H2.4
		C1.9,1.6,1.6,2,1.6,2.4v16.1c0,0.5,0.4,0.8,0.8,0.8H14c0.5,0,0.8-0.4,0.8-0.8v-5.3c0,0,0,0,0,0c0,0,0,0,0,0c0,0,0,0,0.1,0l0.7-0.7
		V19.6z"/>
</g>
</svg>
