<?xml version="1.0" encoding="utf-8"?>
<!-- Generator: Adobe Illustrator 28.3.0, SVG Export Plug-In . SVG Version: 6.00 Build 0)  -->
<svg version="1.1" id="Capa_1" xmlns="http://www.w3.org/2000/svg" xmlns:xlink="http://www.w3.org/1999/xlink" x="0px" y="0px"
	 viewBox="0 0 20.4 21" style="enable-background:new 0 0 20.4 21;" xml:space="preserve">
<style type="text/css">
	.st0{fill:#3CB4E5;}
	.st1{fill:#DF1683;}
	.st2{fill:#C2D500;}
	.st3{fill:none;stroke:#3CB4E5;stroke-width:10;stroke-linecap:round;stroke-linejoin:round;stroke-miterlimit:10;}
	.st4{fill:none;stroke:#3CB4E5;stroke-width:10;stroke-linecap:round;stroke-linejoin:round;}
	.st5{fill:none;stroke:#3CB4E5;stroke-width:10;stroke-linecap:round;stroke-linejoin:round;stroke-dasharray:24.0556,24.0556;}
	.st6{fill:none;stroke:#3CB4E5;stroke-width:10;stroke-linecap:round;stroke-linejoin:round;stroke-dasharray:51.256,20.1004;}
	.st7{fill:none;stroke:#DF1683;stroke-width:10;stroke-linecap:round;stroke-linejoin:round;stroke-miterlimit:10;}
	.st8{fill:none;stroke:#C2D500;stroke-width:10;stroke-linecap:round;stroke-linejoin:round;stroke-miterlimit:10;}
	.st9{fill:none;stroke:#C2D500;stroke-width:10;stroke-miterlimit:10;}
	.st10{fill:#C2D500;stroke:#C2D500;stroke-width:10;stroke-linecap:round;stroke-linejoin:round;stroke-miterlimit:10;}
	.st11{fill:none;stroke:#DF1683;stroke-width:10;stroke-miterlimit:10;}
</style>
<g>
	<path class="st2" d="M2.8,10.9c0.2,0,0.4-0.2,0.4-0.4V2.8C3.2,2.4,3.6,2,4,2h0.6v2.3c0,0.7,0.6,1.2,1.2,1.2c0.7,0,1.2-0.6,1.2-1.2
		V3.4C7.1,3.2,7,3,6.8,3C6.6,3,6.4,3.2,6.4,3.4v0.9c0,0.3-0.2,0.5-0.5,0.5c-0.3,0-0.5-0.2-0.5-0.5V2h8.8v2.6c0,0.2,0.2,0.4,0.4,0.4
		h2.6v4c0,0.2,0.2,0.4,0.4,0.4s0.4-0.2,0.4-0.4V4.6c0,0,0,0,0,0c0-0.1,0-0.2-0.1-0.3l-3-3l0,0l0,0l0,0c0,0,0,0-0.1,0c0,0,0,0,0,0
		c0,0,0,0,0,0c0,0,0,0,0,0c0,0,0,0-0.1,0c0,0,0,0,0,0c0,0,0,0-0.1,0c0,0,0,0,0,0H7.7C7.6,0.5,6.9,0,6.2,0S4.8,0.5,4.7,1.3H4
		C3.2,1.3,2.5,2,2.5,2.8v7.7C2.5,10.7,2.6,10.9,2.8,10.9z M14.9,2.6l1.7,1.7h-1.7V2.6z M6.2,0.8c0.3,0,0.6,0.2,0.7,0.5H5.4
		C5.6,1,5.8,0.8,6.2,0.8z"/>
	<path class="st2" d="M17.5,15.5c-0.2,0-0.4,0.2-0.4,0.4v3.8c0,0.3-0.3,0.6-0.6,0.6h-3.3c-0.2,0-0.4,0.2-0.4,0.4S13,21,13.3,21h3.3
		c0.7,0,1.3-0.6,1.3-1.3v-3.8C17.9,15.7,17.7,15.5,17.5,15.5z"/>
	<path class="st2" d="M20.4,10.4c0-0.3-0.1-0.6-0.3-0.8c-0.2-0.2-0.5-0.3-0.8-0.3c-0.3,0-0.6,0.1-0.8,0.3l-0.8,0.8c0,0,0,0,0,0
		l-5.1,5.1c0,0-0.1,0.1-0.1,0.1L12,17.2c0,0.1,0,0.3,0.1,0.4c0.1,0.1,0.2,0.1,0.3,0.1c0,0,0.1,0,0.1,0l1.5-0.5c0.1,0,0.1,0,0.1-0.1
		l4.6-4.6l0,0L17.3,14c-0.1,0.1-0.1,0.4,0,0.5c0.1,0.1,0.2,0.1,0.3,0.1s0.2,0,0.3-0.1l1.6-1.6c0.1-0.1,0.1-0.3,0-0.5L19.2,12
		l0.8-0.8C20.2,10.9,20.4,10.7,20.4,10.4z M13.7,16.5l-0.7,0.2l0.2-0.7l1.1-1.1l0.5,0.5L13.7,16.5z M15.3,14.9l-0.5-0.5l3.1-3.1
		l0.4,0.6L15.3,14.9z M19.5,10.6l-0.7,0.7l-0.4-0.6l0.6-0.6c0.1-0.1,0.2-0.1,0.2-0.1c0.1,0,0.2,0,0.2,0.1c0.1,0.1,0.1,0.2,0.1,0.2
		C19.6,10.5,19.6,10.6,19.5,10.6z"/>
	<path class="st2" d="M8.7,18.7v-2.4H5.9v2.4H8.7z M6.6,17.1h1.3V18H6.6V17.1z"/>
	<path class="st2" d="M11.9,18.7c-0.1,0-0.1-0.1-0.1-0.2c0-0.2,0.1-0.4,0-0.5c-0.1-0.7-0.6-1.2-1.3-1.2c-0.4,0-0.8,0.1-1.1,0.4
		C9.2,17.3,9,17.7,9,18.1c0,0.1,0,0.2,0,0.4c0,0.1,0,0.1-0.1,0.2c-0.4,0.3-0.6,0.6-0.6,0.9c0,0.2,0.1,0.4,0.2,0.6H5.3v-4.5H2.6v4.5
		H1.8v-5.6L5.6,13l3.8,1.6V16h0.8v-1l1,0.4V13l-5.6-2.4L0,13v2.4L1,15v6h1.6h2.7h5.1v0c0,0,0,0,0,0c1.1,0,2-0.6,2-1.4
		C12.5,19.3,12.3,18.9,11.9,18.7z M0.8,13.5l4.8-2.1l4.8,2.1v0.8l-4.8-2.1l-4.8,2.1V13.5z M3.3,20.2v-3.8h1.2v3.8H3.3z M10.4,20.2
		c-0.8,0-1.3-0.4-1.3-0.6c0-0.1,0.1-0.3,0.2-0.3c0.3-0.2,0.5-0.6,0.4-1c0-0.1,0-0.1,0-0.2c0-0.2,0.1-0.4,0.2-0.5
		c0.1-0.1,0.3-0.2,0.5-0.2c0,0,0.1,0,0.1,0c0.3,0,0.6,0.3,0.6,0.6c0,0.1,0,0.2,0,0.3c-0.1,0.4,0.1,0.8,0.4,1
		c0.1,0.1,0.2,0.2,0.2,0.3C11.7,19.9,11.2,20.2,10.4,20.2z"/>
	<rect x="6.8" y="5.9" class="st2" width="7.7" height="0.8"/>
	<rect x="5" y="5.9" class="st2" width="1.2" height="0.8"/>
	<rect x="5" y="7.4" class="st2" width="9.5" height="0.8"/>
	<rect x="5" y="8.9" class="st2" width="9.5" height="0.8"/>
</g>
</svg>
