<svg width="63" height="64" viewBox="0 0 63 64" fill="none" xmlns="http://www.w3.org/2000/svg">
<g clip-path="url(#clip0_9_2)">
<g filter="url(#filter0_f_9_2)">
<path d="M19.6073 49.7806L20.4109 50.2566C23.7861 52.2597 27.656 53.3193 31.6025 53.3211H31.6107C43.7303 53.3211 53.5937 43.4599 53.5987 31.3397C53.6008 25.4663 51.3159 19.9432 47.1644 15.7885C45.1283 13.7395 42.7059 12.1148 40.0376 11.0083C37.3693 9.90181 34.508 9.33557 31.6194 9.34236C19.4905 9.34236 9.62676 19.2025 9.62244 31.322C9.61647 35.4605 10.7819 39.5162 12.9839 43.0202L13.5071 43.8515L11.2854 51.9624L19.6073 49.7806ZM4.93347 58.246L8.68688 44.5418C6.37206 40.5313 5.15424 35.9815 5.15568 31.3202C5.16179 16.7381 17.0286 4.87488 31.6111 4.87488C38.6875 4.87847 45.3296 7.63232 50.3249 12.6312C55.3202 17.6301 58.0687 24.2747 58.0662 31.3415C58.0597 45.9225 46.1911 57.7879 31.6107 57.7879H31.5992C27.172 57.7861 22.8218 56.6754 18.9576 54.5684L4.93347 58.246Z" fill="#B3B3B3"/>
</g>
<path d="M4.66199 57.9741L8.41539 44.27C6.09659 40.2498 4.87859 35.6894 4.88419 31.0484C4.89031 16.4662 16.7571 4.60303 31.3396 4.60303C38.416 4.60662 45.0581 7.36046 50.0534 12.3594C55.0488 17.3583 57.7972 24.0029 57.7947 31.0696C57.7882 45.6507 45.9196 57.516 31.3393 57.516H31.3278C26.9005 57.5142 22.5503 56.4036 18.6861 54.2966L4.66199 57.9741Z" fill="white"/>
<path d="M31.3475 9.0705C19.2186 9.0705 9.35492 18.9306 9.35061 31.0502C9.34464 35.1887 10.51 39.2443 12.7121 42.7483L13.2353 43.58L11.0136 51.6909L19.3358 49.5087L20.1395 49.9848C23.5146 51.9878 27.3845 53.0471 31.331 53.0493H31.3393C43.4588 53.0493 53.3225 43.1881 53.3272 31.0678C53.3364 28.179 52.7724 25.317 51.6679 22.6476C50.5635 19.9783 48.9405 17.5545 46.893 15.5166C44.8568 13.4676 42.4343 11.8428 39.766 10.7364C37.0976 9.62987 34.2362 9.06366 31.3475 9.0705Z" fill="url(#paint0_linear_9_2)"/>
<path fill-rule="evenodd" clip-rule="evenodd" d="M24.7275 19.9924C24.232 18.8918 23.7106 18.8695 23.24 18.8504L21.9729 18.835C21.5321 18.835 20.8158 19.0004 20.2104 19.6619C19.6049 20.3235 17.8966 21.9225 17.8966 25.1747C17.8966 28.4268 20.2654 31.5694 20.5954 32.0109C20.9255 32.4524 25.1683 39.339 31.8873 41.9886C37.4708 44.1905 38.607 43.7526 39.8195 43.6425C41.0319 43.5325 43.7304 42.0436 44.2808 40.5C44.8313 38.9564 44.8317 37.634 44.6666 37.3575C44.5016 37.081 44.0608 36.9167 43.3992 36.5859C42.7376 36.2551 39.4883 34.6562 38.8825 34.4354C38.2766 34.2146 37.8362 34.105 37.395 34.7665C36.9538 35.4281 35.6885 36.9163 35.3027 37.3575C34.9169 37.7987 34.5318 37.854 33.8702 37.5236C33.2087 37.1932 31.0801 36.4949 28.5546 34.243C26.5896 32.4909 25.2632 30.3271 24.877 29.6659C24.4909 29.0047 24.836 28.6465 25.1676 28.3172C25.4642 28.0209 25.8284 27.5452 26.1596 27.1594C26.4907 26.7736 26.5997 26.4978 26.8197 26.0574C27.0398 25.6169 26.9301 25.23 26.7647 24.8996C26.5993 24.5692 25.315 21.2997 24.7275 19.9924Z" fill="white"/>
</g>
<defs>
<filter id="filter0_f_9_2" x="-2.12853" y="-2.18712" width="67.2567" height="67.4951" filterUnits="userSpaceOnUse" color-interpolation-filters="sRGB">
<feFlood flood-opacity="0" result="BackgroundImageFix"/>
<feBlend mode="normal" in="SourceGraphic" in2="BackgroundImageFix" result="shape"/>
<feGaussianBlur stdDeviation="3.531" result="effect1_foregroundBlur_9_2"/>
</filter>
<linearGradient id="paint0_linear_9_2" x1="30.8913" y1="11.7096" x2="31.1142" y2="49.2923" gradientUnits="userSpaceOnUse">
<stop stop-color="#57D163"/>
<stop offset="1" stop-color="#23B33A"/>
</linearGradient>
<clipPath id="clip0_9_2">
<rect width="63" height="63.1208" fill="white"/>
</clipPath>
</defs>
</svg>
