<svg width="78" height="72" viewBox="0 0 78 72" fill="none" xmlns="http://www.w3.org/2000/svg">
<path d="M72.171 15.0836L76.1732 14.6167L69.6173 69.418L65.4912 70.9998L72.171 15.0836Z" fill="white" stroke="#111F62" stroke-width="2" stroke-linecap="round" stroke-linejoin="round"/>
<path d="M29.0421 1.04765L72.1704 15.0839L76.1726 14.6169L35.0073 1L29.0421 1.04765Z" fill="white" stroke="#111F62" stroke-width="2" stroke-linecap="round" stroke-linejoin="round"/>
<path d="M65.4911 71.0002L45.2992 61.9858L55.5714 9.68115L72.1709 15.0841L65.4911 71.0002Z" fill="white" stroke="#111F62" stroke-width="2" stroke-linecap="round" stroke-linejoin="round"/>
<path d="M69.9793 33.4558L56.5339 27.5669L62.9565 12.0918L72.171 15.0839L69.9793 33.4558Z" fill="#2D35A4" stroke="#111F62" stroke-width="2" stroke-linejoin="round"/>
<path d="M38.9527 66.9218C61.9557 52.0947 72.1708 15.1317 72.1708 15.1317L29.0425 1.08594C29.0425 1.08594 22.5247 26.9667 1.88489 41.1077L38.9527 66.9218Z" fill="white" stroke="#111F62" stroke-width="2" stroke-linecap="round" stroke-linejoin="round"/>
<path d="M24.0974 13.9501L66.025 31.5502C68.4104 26.1941 70.4693 20.6985 72.1903 15.0936L29.0621 1.04785C27.8321 5.50028 26.1693 9.82161 24.0974 13.9501V13.9501Z" fill="#3CB4E5" stroke="#111F62" stroke-width="2" stroke-linejoin="round"/>
<path d="M30.6815 42.2036L28.9853 45.3291C28.956 45.3959 28.9123 45.4553 28.8574 45.5032C28.8025 45.5511 28.7378 45.5864 28.6677 45.6064C28.5976 45.6264 28.524 45.6307 28.452 45.619C28.3801 45.6073 28.3117 45.5799 28.2516 45.5387L18.0365 39.9833C17.97 39.9551 17.9107 39.9125 17.8628 39.8584C17.8149 39.8044 17.7796 39.7404 17.7595 39.6711C17.7394 39.6017 17.735 39.5287 17.7467 39.4575C17.7584 39.3862 17.7857 39.3185 17.8268 39.2591L19.523 36.1241C19.5523 36.0574 19.596 35.9979 19.6509 35.95C19.7058 35.9021 19.7705 35.8669 19.8406 35.8468C19.9107 35.8268 19.9843 35.8225 20.0562 35.8342C20.1282 35.8458 20.1967 35.8733 20.2568 35.9145L23.3822 37.6201L29.195 26.9381L25.8026 26.4998C25.4119 26.4426 25.2404 26.1949 25.431 25.8423L27.1462 22.6787C27.2064 22.5568 27.3028 22.4565 27.4223 22.3917C27.5417 22.3268 27.6782 22.3006 27.8132 22.3166L32.6445 22.8407C32.8664 22.8527 33.082 22.9181 33.2733 23.0313L35.7794 24.3939C35.847 24.4222 35.9074 24.4652 35.9564 24.5197C36.0053 24.5742 36.0415 24.6388 36.0624 24.7089C36.0834 24.7791 36.0886 24.8531 36.0776 24.9255C36.0665 24.9979 36.0396 25.0669 35.9987 25.1276L27.8704 40.0596L30.4718 41.4698C30.5386 41.4991 30.598 41.5428 30.646 41.5977C30.6939 41.6526 30.7291 41.7174 30.7491 41.7875C30.7692 41.8575 30.7734 41.9311 30.7617 42.0031C30.75 42.075 30.7226 42.1435 30.6815 42.2036V42.2036Z" fill="#111F62"/>
<path d="M51.7499 33.6941L50.3873 36.2098C50.2584 36.4509 50.0873 36.6671 49.8823 36.8482L35.8652 49.1882C35.7612 49.2811 35.6304 49.3385 35.4917 49.3523C35.3529 49.366 35.2134 49.3352 35.0933 49.2644L31.4342 47.2729C31.0816 47.0823 31.034 46.825 31.3389 46.5392L44.9462 34.7422L38.2759 31.1117C38.2103 31.0811 38.1521 31.0369 38.1051 30.9818C38.0582 30.9268 38.0236 30.8623 38.0037 30.7927C37.9838 30.7231 37.9791 30.6501 37.9899 30.5785C38.0007 30.507 38.0268 30.4386 38.0663 30.378L39.8006 27.1953C39.8292 27.1292 39.8718 27.0701 39.9256 27.0222C39.9793 26.9742 40.043 26.9386 40.1119 26.9178C40.1809 26.8969 40.2535 26.8913 40.3248 26.9014C40.3961 26.9114 40.4644 26.937 40.5249 26.9762L51.5403 32.9699C51.6056 32.9994 51.6638 33.0427 51.7107 33.0969C51.7577 33.1511 51.7922 33.2148 51.8122 33.2836C51.8321 33.3525 51.8369 33.4248 51.8261 33.4957C51.8154 33.5666 51.7894 33.6342 51.7499 33.6941V33.6941Z" fill="#111F62"/>
<path d="M43.3835 8.67087L43.0499 9.55706C43.0423 9.58902 43.0282 9.61905 43.0084 9.64529C42.9886 9.67152 42.9636 9.69339 42.935 9.70949C42.9064 9.7256 42.8747 9.73564 42.8421 9.73892C42.8094 9.74221 42.7763 9.73866 42.745 9.72857L39.1717 8.63277L38.133 11.3294L41.2204 12.33C41.3538 12.33 41.392 12.4825 41.3443 12.6254L41.0202 13.4735C41.0129 13.5042 40.9991 13.533 40.9796 13.5578C40.9602 13.5827 40.9357 13.603 40.9076 13.6175C40.8796 13.632 40.8487 13.6403 40.8171 13.6417C40.7856 13.6432 40.7542 13.6378 40.7249 13.626L37.6471 12.6159L36.2272 16.2655C36.2177 16.2957 36.202 16.3236 36.1812 16.3474C36.1603 16.3712 36.1348 16.3905 36.1062 16.4039C36.0775 16.4174 36.0464 16.4247 36.0147 16.4254C35.9831 16.4262 35.9515 16.4204 35.9222 16.4084L34.9693 16.0749C34.9397 16.0681 34.912 16.0546 34.8884 16.0355C34.8647 16.0164 34.8458 15.9921 34.8329 15.9645C34.82 15.937 34.8137 15.9068 34.8142 15.8764C34.8147 15.846 34.8221 15.8162 34.8359 15.7891L38.1902 7.14625C38.1977 7.11549 38.2116 7.08662 38.2309 7.06151C38.2502 7.0364 38.2745 7.01555 38.3023 7.00033C38.3301 6.9851 38.3607 6.97582 38.3922 6.97305C38.4238 6.97028 38.4556 6.97406 38.4856 6.98422L39.6767 7.30823L43.2596 8.37547C43.2887 8.38461 43.3155 8.4 43.338 8.42054C43.3606 8.44109 43.3784 8.46628 43.3902 8.49441C43.402 8.52253 43.4075 8.55292 43.4063 8.58339C43.4052 8.61387 43.3974 8.64371 43.3835 8.67087Z" fill="white"/>
<path d="M46.9482 19.3625L46.6146 20.2486C46.6077 20.2794 46.5939 20.3082 46.5743 20.3329C46.5547 20.3576 46.5298 20.3776 46.5014 20.3914C46.473 20.4051 46.4419 20.4122 46.4103 20.4122C46.3788 20.4123 46.3477 20.4052 46.3192 20.3915L42.2313 18.7335L41.4975 18.4476C41.4671 18.4388 41.4391 18.4232 41.4156 18.402C41.3921 18.3808 41.3737 18.3546 41.3618 18.3252C41.3498 18.2959 41.3447 18.2642 41.3468 18.2326C41.3488 18.201 41.358 18.1703 41.3736 18.1427L44.7851 9.11878C44.79 9.08638 44.8021 9.05549 44.8206 9.0284C44.839 9.00131 44.8633 8.97867 44.8916 8.96222C44.92 8.94576 44.9517 8.93591 44.9843 8.93331C45.017 8.93071 45.0498 8.93544 45.0804 8.94721L46.2525 9.32839L49.8164 10.5481C49.8471 10.5581 49.8752 10.5748 49.8987 10.5969C49.9222 10.6191 49.9406 10.6461 49.9524 10.6761C49.9642 10.7062 49.9693 10.7385 49.9672 10.7707C49.9651 10.8029 49.9559 10.8343 49.9403 10.8625L49.5972 11.8154C49.5922 11.8478 49.5801 11.8787 49.5617 11.9058C49.5432 11.9329 49.519 11.9555 49.4906 11.972C49.4623 11.9884 49.4306 11.9983 49.3979 12.0009C49.3652 12.0035 49.3324 11.9987 49.3018 11.987L45.7475 10.7387L44.6994 13.5402L47.8248 14.6932C47.8555 14.7032 47.8836 14.7199 47.9071 14.742C47.9306 14.7642 47.949 14.7912 47.9609 14.8213C47.9727 14.8513 47.9777 14.8836 47.9756 14.9158C47.9736 14.948 47.9643 14.9794 47.9487 15.0077L47.6247 15.8843C47.6174 15.9151 47.6036 15.9438 47.5841 15.9687C47.5647 15.9935 47.54 16.0139 47.512 16.0284C47.4839 16.0429 47.4531 16.0511 47.4216 16.0525C47.3901 16.054 47.3585 16.0486 47.3293 16.0368L44.2038 14.8552L43.1651 17.6091L46.8243 19.0671C46.8795 19.0903 46.9234 19.1342 46.9466 19.1894C46.9697 19.2447 46.9703 19.3068 46.9482 19.3625Z" fill="white"/>
<path d="M55.0657 21.0205C54.3701 22.9263 53.2361 23.4694 51.2541 22.5356L48.7481 21.4207L48.2621 21.2111C48.232 21.1987 48.2047 21.1803 48.1821 21.1571C48.1594 21.1338 48.1418 21.1062 48.1302 21.0758C48.1186 21.0455 48.1132 21.0131 48.1146 20.9806C48.116 20.9481 48.1241 20.9163 48.1382 20.8871L51.6068 11.4629C51.613 11.4301 51.6262 11.3992 51.6456 11.3721C51.6651 11.345 51.6902 11.3225 51.7193 11.3062C51.7483 11.2899 51.7806 11.2801 51.8138 11.2775C51.8471 11.275 51.8804 11.2797 51.9117 11.2914L53.0646 11.7202L54.6179 12.3205C56.3998 13.0257 57.0383 14.2263 56.3427 16.1988C55.9329 17.3423 55.3898 17.8854 54.4369 17.9045C55.4469 18.7145 55.5421 19.696 55.0657 21.0205ZM52.5024 13.0828L51.4447 15.9415L52.8741 16.5228C53.989 16.9992 54.494 16.7324 54.8847 15.6366C55.2754 14.5408 55.0562 14.0452 53.9318 13.5974L52.5024 13.0828ZM53.665 20.3154C54.0938 19.1242 53.8747 18.562 52.5501 17.9903L50.9588 17.3232L49.8247 20.4106L51.5782 21.1825C52.7693 21.697 53.2648 21.5065 53.7031 20.3154H53.665Z" fill="white"/>
</svg>
