<?xml version="1.0" encoding="utf-8"?>
<!-- Generator: Adobe Illustrator 28.3.0, SVG Export Plug-In . SVG Version: 6.00 Build 0)  -->
<svg version="1.1" id="Capa_1" xmlns="http://www.w3.org/2000/svg" xmlns:xlink="http://www.w3.org/1999/xlink" x="0px" y="0px"
	 viewBox="0 0 20.8 21" style="enable-background:new 0 0 20.8 21;" xml:space="preserve">
<style type="text/css">
	.st0{fill:#3CB4E5;}
	.st1{fill:#DF1683;}
	.st2{fill:#C2D500;}
	.st3{fill:none;stroke:#3CB4E5;stroke-width:10;stroke-linecap:round;stroke-linejoin:round;stroke-miterlimit:10;}
	.st4{fill:none;stroke:#3CB4E5;stroke-width:10;stroke-linecap:round;stroke-linejoin:round;}
	.st5{fill:none;stroke:#3CB4E5;stroke-width:10;stroke-linecap:round;stroke-linejoin:round;stroke-dasharray:24.0556,24.0556;}
	.st6{fill:none;stroke:#3CB4E5;stroke-width:10;stroke-linecap:round;stroke-linejoin:round;stroke-dasharray:51.256,20.1004;}
	.st7{fill:none;stroke:#DF1683;stroke-width:10;stroke-linecap:round;stroke-linejoin:round;stroke-miterlimit:10;}
	.st8{fill:none;stroke:#C2D500;stroke-width:10;stroke-linecap:round;stroke-linejoin:round;stroke-miterlimit:10;}
	.st9{fill:none;stroke:#C2D500;stroke-width:10;stroke-miterlimit:10;}
	.st10{fill:#C2D500;stroke:#C2D500;stroke-width:10;stroke-linecap:round;stroke-linejoin:round;stroke-miterlimit:10;}
	.st11{fill:none;stroke:#DF1683;stroke-width:10;stroke-miterlimit:10;}
</style>
<g>
	<path class="st1" d="M12.4,18.3c0.6,0,1.1-0.5,1.1-1.1s-0.5-1.1-1.1-1.1c-0.6,0-1.1,0.5-1.1,1.1S11.8,18.3,12.4,18.3z M12.4,16.8
		c0.2,0,0.4,0.2,0.4,0.4c0,0.2-0.2,0.4-0.4,0.4c-0.2,0-0.4-0.2-0.4-0.4C12,17,12.2,16.8,12.4,16.8z"/>
	<path class="st1" d="M19.4,4H13V1.7c0-0.2-0.2-0.4-0.4-0.4h-2.4v0C10.2,0.6,9.6,0,8.9,0h-5C3.2,0,2.6,0.6,2.6,1.3v0H0.4
		C0.2,1.3,0,1.5,0,1.7v18.9C0,20.8,0.2,21,0.4,21h12.2c0.2,0,0.4-0.2,0.4-0.4v-1c1.1-0.3,1.9-1.2,1.9-2.4c0-1.4-1.1-2.5-2.5-2.5
		c-1.4,0-2.5,1.1-2.5,2.5c0,0.7,0.3,1.3,0.7,1.8H2.1v-0.6h7c0.2,0,0.4-0.2,0.4-0.4s-0.2-0.4-0.4-0.4h-7v-0.7h7.3
		c0.2,0,0.4-0.2,0.4-0.4v-3.9c0,0,0,0,0-0.1c0,0,0,0,0,0c0,0,0,0,0,0c0,0,0,0,0,0c0,0,0,0,0,0c0,0,0,0,0,0c0,0,0,0,0,0L7.7,9.6
		C7.6,9.5,7.5,9.5,7.4,9.5H2.1V8.9h6l2.6,3.8c0.1,0.1,0.2,0.2,0.3,0.2h2.1c0.2,1.1,1.1,1.9,2.2,1.9h0.5c0,0,0,0,0,0.1V17
		c0,0.2-0.2,0.5-0.4,0.5c-0.2,0.1-0.3,0.3-0.2,0.5c0.1,0.2,0.3,0.3,0.5,0.2c0.5-0.2,0.9-0.7,0.9-1.2v-2.1c0-0.2,0-0.4-0.1-0.5
		c0,0,0,0,0,0c-0.2-1.2-1.3-2.2-2.7-2.2H13V7.5h6.4c0.8,0,1.5-0.8,1.5-1.7S20.2,4,19.4,4z M9.3,6.8v-2h8.9v2H9.3z M7.2,5.8L8.6,5
		v1.5L7.2,5.8z M12.2,2.1V4h-0.6V3c0-0.2-0.2-0.4-0.4-0.4h-1V2.1H12.2z M3.3,1.3c0-0.3,0.3-0.6,0.6-0.6h5c0.3,0,0.6,0.3,0.6,0.6v1.3
		H3.3V1.3z M12.4,15.5c0.9,0,1.7,0.8,1.7,1.7s-0.8,1.7-1.7,1.7c-0.9,0-1.7-0.8-1.7-1.7S11.5,15.5,12.4,15.5z M11.2,19.7
		c0.1,0,0.3-0.1,0.3-0.2c0.2,0.1,0.4,0.1,0.7,0.2v0.6H0.8V2.1h1.8v0.5H1.8C1.6,2.6,1.4,2.8,1.4,3v5.5v1.3v6.7v1.4v1.4
		c0,0.2,0.2,0.4,0.4,0.4H11.2z M2.1,16.1V13h7v3.2H2.1z M8.7,12.2H7.2v-0.6h1.1L8.7,12.2z M7.2,10.2l0.5,0.6H7.2
		c-0.4,0-0.7,0.3-0.7,0.7v0.6H2.1v-2H7.2z M8.6,8.3C8.6,8.2,8.5,8.1,8.3,8.1H2.1V3.4H3h6.9h1V4H8.9c0,0,0,0-0.1,0c0,0,0,0,0,0
		c0,0,0,0-0.1,0c0,0,0,0,0,0c0,0,0,0,0,0L6.2,5.4C6.1,5.5,6,5.6,6,5.8C6,5.9,6.1,6,6.2,6.1l2.6,1.4c0,0,0,0,0,0c0,0,0,0,0,0
		c0,0,0,0,0.1,0c0,0,0,0,0,0c0,0,0,0,0.1,0h1.9v4L8.6,8.3z M15.6,14h-0.3c-0.7,0-1.3-0.5-1.5-1.1h0C14.7,12.9,15.3,13.3,15.6,14z
		 M12.2,12.1h-0.6V7.5h0.6V12.1z M19.4,6.8H19v-2h0.3c0.4,0,0.7,0.5,0.7,1S19.7,6.8,19.4,6.8z"/>
	<polygon class="st1" points="6.2,3.8 3.4,6.6 3,6.2 2.5,6.7 3.4,7.7 6.7,4.4 	"/>
	<circle class="st1" cx="4.4" cy="1.7" r="0.3"/>
	<circle class="st1" cx="8.4" cy="1.7" r="0.3"/>
</g>
</svg>
