<?xml version="1.0" encoding="utf-8"?>
<!-- Generator: Adobe Illustrator 28.3.0, SVG Export Plug-In . SVG Version: 6.00 Build 0)  -->
<svg version="1.1" id="Capa_1" xmlns="http://www.w3.org/2000/svg" xmlns:xlink="http://www.w3.org/1999/xlink" x="0px" y="0px"
	 viewBox="0 0 16.4 21" style="enable-background:new 0 0 16.4 21;" xml:space="preserve">
<style type="text/css">
	.st0{fill:#3CB4E5;}
	.st1{fill:#DF1683;}
	.st2{fill:#C2D500;}
	.st3{fill:none;stroke:#3CB4E5;stroke-width:10;stroke-linecap:round;stroke-linejoin:round;stroke-miterlimit:10;}
	.st4{fill:none;stroke:#3CB4E5;stroke-width:10;stroke-linecap:round;stroke-linejoin:round;}
	.st5{fill:none;stroke:#3CB4E5;stroke-width:10;stroke-linecap:round;stroke-linejoin:round;stroke-dasharray:24.0556,24.0556;}
	.st6{fill:none;stroke:#3CB4E5;stroke-width:10;stroke-linecap:round;stroke-linejoin:round;stroke-dasharray:51.256,20.1004;}
	.st7{fill:none;stroke:#DF1683;stroke-width:10;stroke-linecap:round;stroke-linejoin:round;stroke-miterlimit:10;}
	.st8{fill:none;stroke:#C2D500;stroke-width:10;stroke-linecap:round;stroke-linejoin:round;stroke-miterlimit:10;}
	.st9{fill:none;stroke:#C2D500;stroke-width:10;stroke-miterlimit:10;}
	.st10{fill:#C2D500;stroke:#C2D500;stroke-width:10;stroke-linecap:round;stroke-linejoin:round;stroke-miterlimit:10;}
	.st11{fill:none;stroke:#DF1683;stroke-width:10;stroke-miterlimit:10;}
</style>
<g>
	<path class="st0" d="M15,0H1.4C0.6,0,0,0.6,0,1.4v18.2C0,20.4,0.6,21,1.4,21H15c0.8,0,1.4-0.6,1.4-1.4V1.4C16.4,0.6,15.8,0,15,0z
		 M15.7,19.6c0,0.3-0.3,0.6-0.6,0.6H1.4c-0.3,0-0.6-0.3-0.6-0.6V1.4C0.8,1,1,0.8,1.4,0.8H15c0.3,0,0.6,0.3,0.6,0.6V19.6z"/>
	<path class="st0" d="M4.2,14h8c0.2,0,0.4-0.2,0.4-0.4v-0.9c0-2.4-2-4.4-4.4-4.4s-4.4,2-4.4,4.4v0.9C3.8,13.9,4,14,4.2,14z
		 M4.6,12.7c0-2,1.6-3.6,3.6-3.6s3.6,1.6,3.6,3.6v0.6H4.6V12.7z"/>
	<path class="st0" d="M8.2,8c1.5,0,2.7-1.2,2.7-2.7S9.7,2.5,8.2,2.5c-1.5,0-2.7,1.2-2.7,2.7S6.7,8,8.2,8z M8.2,3.3c1.1,0,2,0.9,2,2
		c0,1.1-0.9,2-2,2c-1.1,0-2-0.9-2-2C6.2,4.2,7.1,3.3,8.2,3.3z"/>
	<path class="st0" d="M2.9,16.5h0.8c0.2,0,0.4-0.2,0.4-0.4s-0.2-0.4-0.4-0.4H2.9c-0.2,0-0.4,0.2-0.4,0.4S2.7,16.5,2.9,16.5z"/>
	<path class="st0" d="M10.9,15.8H9.1c-0.2,0-0.4,0.2-0.4,0.4s0.2,0.4,0.4,0.4h1.8c0.2,0,0.4-0.2,0.4-0.4S11.1,15.8,10.9,15.8z"/>
	<path class="st0" d="M7.7,16.1c0-0.2-0.2-0.4-0.4-0.4H5.5c-0.2,0-0.4,0.2-0.4,0.4s0.2,0.4,0.4,0.4h1.8C7.5,16.5,7.7,16.4,7.7,16.1z
		"/>
	<path class="st0" d="M13.5,15.8h-0.8c-0.2,0-0.4,0.2-0.4,0.4s0.2,0.4,0.4,0.4h0.8c0.2,0,0.4-0.2,0.4-0.4S13.7,15.8,13.5,15.8z"/>
	<path class="st0" d="M4.8,17.7H2.9c-0.2,0-0.4,0.2-0.4,0.4s0.2,0.4,0.4,0.4h1.9c0.2,0,0.4-0.2,0.4-0.4S5,17.7,4.8,17.7z"/>
	<path class="st0" d="M10.1,17.7H6.3c-0.2,0-0.4,0.2-0.4,0.4s0.2,0.4,0.4,0.4h3.8c0.2,0,0.4-0.2,0.4-0.4S10.3,17.7,10.1,17.7z"/>
	<path class="st0" d="M13.5,17.7h-1.9c-0.2,0-0.4,0.2-0.4,0.4s0.2,0.4,0.4,0.4h1.9c0.2,0,0.4-0.2,0.4-0.4S13.7,17.7,13.5,17.7z"/>
</g>
</svg>
