<?xml version="1.0" encoding="UTF-8"?>
<svg id="Layer_1" data-name="Layer 1" xmlns="http://www.w3.org/2000/svg" viewBox="0 0 383.89 63.65">
  <defs>
    <style>
      .cls-1 {
        fill: #004987;
      }

      .cls-1, .cls-2, .cls-3, .cls-4, .cls-5, .cls-6, .cls-7 {
        stroke-width: 0px;
      }

      .cls-2 {
        fill: #df1683;
      }

      .cls-3 {
        fill: #2f328a;
      }

      .cls-4 {
        fill: #3cb4e5;
      }

      .cls-5 {
        fill: #c2d500;
      }

      .cls-6 {
        fill: #1e1e1c;
      }

      .cls-7 {
        fill: #ffcd00;
      }
    </style>
  </defs>
  <g>
    <polygon class="cls-2" points="46.63 17.38 47.89 21.09 58.19 10.81 64.42 17.03 64.42 12.06 58.19 5.84 46.63 17.38"/>
    <polygon class="cls-7" points="64.42 50.18 64.42 42.57 60.61 46.37 64.42 50.18"/>
    <polygon class="cls-2" points="-.11 50.18 -.11 42.57 3.7 46.37 -.11 50.18"/>
    <polygon class="cls-5" points="38.06 38.33 37.4 36.25 35.31 38.33 38.06 38.33"/>
    <polygon class="cls-5" points="49.07 24.58 49.37 25.46 50.35 28.27 58.34 20.29 64.42 26.37 64.42 21.4 58.34 15.33 49.07 24.58"/>
    <polygon class="cls-5" points="24.39 49.24 22.89 49.24 22.24 51.38 21.54 53.73 20.47 57.28 16.34 57.28 9.94 63.68 13.91 63.65 14.94 63.65 29.36 49.24 24.39 49.24"/>
    <polygon class="cls-4" points="52.6 7.37 50.12 4.88 44.35 10.65 45.6 14.36 52.6 7.37"/>
    <polygon class="cls-4" points="34.1 25.85 32.9 22.08 30.8 24.19 28.6 31.35 34.1 25.85"/>
    <polygon class="cls-4" points="59.09 53.39 64.42 58.72 64.42 53.75 56.44 45.78 59.09 53.39"/>
    <polygon class="cls-1" points="51.37 31.19 52.65 34.88 58.21 29.33 63.73 34.85 56.3 42.28 58.78 44.77 64.42 39.14 64.42 30.57 58.21 24.36 51.37 31.19"/>
    <polygon class="cls-1" points="33.66 49.24 19.21 63.68 22.28 63.65 24.22 63.65 38.64 49.24 33.66 49.24"/>
    <polygon class="cls-2" points="58.87 57.05 58.82 57.05 53.87 57.02 53.9 57.05 51.13 57.05 44.52 63.65 46.4 63.65 49.49 63.65 55 58.15 60.51 63.65 64.42 63.65 64.42 62.59 58.87 57.05"/>
    <polygon class="cls-7" points="42.73 53.39 41.56 49.66 27.52 63.68 31.84 63.65 32.53 63.65 42.16 54.03 42.73 53.39"/>
    <polygon class="cls-4" points="43.88 57.05 43.51 55.88 35.7 63.68 38.94 63.65 40.7 63.65 47.31 57.05 43.88 57.05"/>
    <polygon class="cls-5" points="28.65 0 21.97 6.39 24.87 6.39 27.25 6.39 33.63 .02 28.65 0"/>
    <polygon class="cls-1" points="39.25 0 36.97 0 30.59 6.39 34.53 6.39 35.56 6.39 41.93 0 39.25 0"/>
    <polygon class="cls-2" points="46.88 0 45.15 0 38.76 6.39 42.9 6.39 43.12 7.01 50.11 0 46.88 0"/>
    <polygon class="cls-1" points="64.42 8.29 64.42 6.29 63.41 7.29 64.42 8.29"/>
    <polygon class="cls-4" points="54.74 5.06 58.23 1.57 61.84 5.18 64.33 2.7 61.64 .02 54.82 .02 52.25 2.58 54.74 5.06"/>
    <polygon class="cls-7" points="60.41 34.73 57.93 32.24 53.33 36.84 54.61 40.53 60.41 34.73"/>
    <polygon class="cls-1" points="17.79 17.38 16.53 21.09 6.23 10.81 0 17.03 0 12.06 6.23 5.84 17.79 17.38"/>
    <polygon class="cls-4" points="15.34 24.58 15.04 25.46 14.07 28.27 6.08 20.29 0 26.37 0 21.4 6.08 15.33 15.34 24.58"/>
    <polygon class="cls-4" points="24.09 0 19.21 0 14.32 4.91 14.3 4.88 11.81 7.37 18.81 14.36 20.07 10.65 16.85 7.43 24.09 0"/>
    <polygon class="cls-4" points="5.33 53.39 0 58.72 0 53.75 7.98 45.78 5.33 53.39"/>
    <polygon class="cls-5" points="13.05 31.19 11.77 34.88 6.21 29.33 .68 34.85 8.12 42.28 5.63 44.77 0 39.14 0 30.57 6.21 24.36 13.05 31.19"/>
    <polygon class="cls-2" points="6.8 57.05 6.85 57.05 11.8 57.02 5.16 63.65 1.25 63.65 0 63.65 6.8 57.05"/>
    <polygon class="cls-4" points="0 8.29 0 6.29 1 7.29 0 8.29"/>
    <polygon class="cls-7" points="9.68 5.06 6.19 1.57 2.57 5.18 .09 2.7 2.77 .02 9.6 .02 12.16 2.58 9.68 5.06"/>
    <polygon class="cls-1" points="4 34.73 6.49 32.24 11.09 36.84 9.81 40.53 4 34.73"/>
    <polygon class="cls-2" points="35.61 30.6 35.07 28.93 29.33 34.67 27.82 36.18 26.78 37.29 26.46 38.33 30.49 38.33 30.63 38.33 36.27 32.7 35.61 30.6"/>
    <polygon class="cls-6" points="58.82 57.05 58.87 57.05 58.84 57.02 58.82 57.05"/>
    <polygon class="cls-5" points="53.13 63.68 57.27 63.68 55.1 61.38 53.13 63.68"/>
  </g>
  <g>
    <path class="cls-3" d="M96.39,12.48h8.01v2.82h-4.93v2.65h4.13v2.79h-4.13v2.75h5.1v2.82h-8.18v-13.83Z"/>
    <path class="cls-3" d="M106.11,12.48h3.02v13.83h-3.02v-13.83Z"/>
    <path class="cls-3" d="M93.21,55.4v-4.8c.93.62,2.94,1.01,4.72,1.01,3.79,0,5.88-1.78,5.88-4.25v-1.08h-.23c-.31.73-2.32,2.67-5.8,2.67-4.56,0-9.63-3.44-9.63-10.44s5.07-10.44,9.63-10.44c3.48,0,5.49,1.93,5.8,2.67h.23v-2.28h5.99v18.41c0,7.97-6.27,9.75-10.75,9.75-2.17,0-4.56-.35-5.84-1.2ZM99.01,43.6c2.63,0,4.95-1.82,4.95-5.1s-2.32-5.11-4.95-5.11-4.95,1.86-4.95,5.11,2.36,5.1,4.95,5.1Z"/>
    <path class="cls-3" d="M113.44,21.09h5.99v5.22h-5.99v-5.22ZM113.44,28.44h5.99v20.11h-5.99v-20.11Z"/>
    <path class="cls-3" d="M127.17,55.4v-4.8c.93.62,2.94,1.01,4.72,1.01,3.79,0,5.88-1.78,5.88-4.25v-1.08h-.23c-.31.73-2.32,2.67-5.8,2.67-4.56,0-9.63-3.44-9.63-10.44s5.07-10.44,9.63-10.44c3.48,0,5.49,1.93,5.8,2.67h.23v-2.28h5.99v18.41c0,7.97-6.27,9.75-10.75,9.75-2.17,0-4.56-.35-5.84-1.2ZM132.97,43.6c2.63,0,4.95-1.82,4.95-5.1s-2.32-5.11-4.95-5.11-4.95,1.86-4.95,5.11,2.36,5.1,4.95,5.1Z"/>
    <path class="cls-3" d="M146.43,38.5c0-7,5.03-10.44,9.59-10.44,3.56,0,5.65,1.93,5.96,2.67h.12v-2.28h5.99v20.11h-5.99v-2.28h-.12c-.31.73-2.4,2.67-5.96,2.67-4.56,0-9.59-3.44-9.59-10.44ZM157.26,43.6c2.63,0,4.99-1.82,4.99-5.1s-2.36-5.11-4.99-5.11-4.91,1.86-4.91,5.11,2.36,5.1,4.91,5.1Z"/>
    <path class="cls-3" d="M171.72,28.44h5.99v2.55c1.12-1.7,3.09-2.94,5.96-2.94,4.06,0,7.5,2.51,7.5,8.66v11.83h-5.99v-10.79c0-2.51-1.28-4.37-3.75-4.37s-3.71,1.86-3.71,4.37v10.79h-5.99v-20.11Z"/>
    <path class="cls-3" d="M196.24,42.36v-9.17h-2.98v-4.76h2.98v-5.14h5.99v5.14h4.22v4.76h-4.22v8.2c0,1.01.58,2.09,2.4,2.09.46,0,1.16-.08,1.9-.31v4.56c-.77.77-2.48,1.04-3.87,1.04-3.71,0-6.42-1.82-6.42-6.42Z"/>
    <path class="cls-3" d="M208.15,38.53c0-6.81,5.07-10.48,10.25-10.48s11.1,3.56,9.82,12.76h-14.31c.81,2.17,2.82,3.25,5.49,3.25,1.78,0,3.36-.43,4.83-1.55l2.71,2.82c-1.66,2.09-4.52,3.6-8.2,3.6-5.57,0-10.6-3.79-10.6-10.4ZM222.96,36.52c-.43-2.32-2.48-3.44-4.49-3.44s-4.02,1.04-4.68,3.44h9.17Z"/>
    <path class="cls-3" d="M239.19,44.32v-1.15h-.06c-.16.37-1.21,1.34-3,1.34-2.3,0-4.83-1.73-4.83-5.26s2.53-5.26,4.83-5.26c1.79,0,2.84.97,3,1.34h.06v-4.85h3.02v13.83h-3.02ZM236.76,41.83c1.32,0,2.51-.92,2.51-2.57s-1.19-2.57-2.51-2.57-2.47.94-2.47,2.57,1.19,2.57,2.47,2.57Z"/>
    <path class="cls-3" d="M243.56,39.28c0-3.43,2.55-5.28,5.16-5.28s5.59,1.79,4.95,6.43h-7.21c.41,1.09,1.42,1.64,2.77,1.64.9,0,1.7-.21,2.44-.78l1.36,1.42c-.84,1.05-2.28,1.81-4.13,1.81-2.8,0-5.34-1.91-5.34-5.24ZM251.02,38.26c-.21-1.17-1.25-1.73-2.26-1.73s-2.03.53-2.36,1.73h4.62Z"/>
    <path class="cls-3" d="M256.88,22.7h6.73l8.28,19.69,8.28-19.69h6.73v27.46h-6.11v-15.74h-.19l-6.46,15.74h-4.49l-6.46-15.74h-.19v15.74h-6.11v-27.46Z"/>
    <path class="cls-3" d="M289.56,40.14c0-6.81,5.07-10.48,10.25-10.48s11.1,3.56,9.82,12.76h-14.31c.81,2.17,2.82,3.25,5.49,3.25,1.78,0,3.36-.43,4.83-1.55l2.71,2.82c-1.66,2.09-4.52,3.6-8.2,3.6-5.57,0-10.6-3.79-10.6-10.4ZM304.38,38.13c-.43-2.32-2.48-3.44-4.49-3.44s-4.02,1.04-4.68,3.44h9.17ZM301.79,21.54h4.72l-4.1,6.11h-4.6l3.98-6.11Z"/>
    <path class="cls-3" d="M316.71,39.83l-6.88-9.78h6.77l3.56,5.45,3.56-5.45h6.77l-6.88,9.78,7.66,10.33h-6.85l-4.25-5.96-4.25,5.96h-6.85l7.66-10.33Z"/>
    <path class="cls-3" d="M333.34,22.7h5.99v5.22h-5.99v-5.22ZM333.34,30.04h5.99v20.11h-5.99v-20.11Z"/>
    <path class="cls-3" d="M342.01,40.06c0-6.81,5.34-10.4,10.71-10.4,3.56,0,6.69,1.62,8.66,4.95l-4.33,2.82c-.97-1.32-2.4-2.36-4.33-2.36-2.59,0-4.8,1.93-4.8,4.99s2.2,5.07,4.8,5.07c1.93,0,3.36-1.04,4.33-2.36l4.33,2.82c-1.97,3.25-5.11,4.95-8.66,4.95-5.38,0-10.71-3.6-10.71-10.48Z"/>
    <path class="cls-3" d="M362.54,40.1c0-6.85,5.41-10.44,10.67-10.44s10.67,3.6,10.67,10.44-5.41,10.44-10.67,10.44-10.67-3.6-10.67-10.44ZM373.22,45.13c2.59,0,4.76-1.93,4.76-5.03s-2.17-5.03-4.76-5.03-4.76,1.93-4.76,5.03,2.17,5.03,4.76,5.03Z"/>
  </g>
</svg>