<svg width="97" height="70" viewBox="0 0 97 70" fill="none" xmlns="http://www.w3.org/2000/svg">
<path d="M63.8973 36.1643L15.5991 52.0734C14.2822 52.5082 12.8615 51.7905 12.4289 50.4726L2.68392 20.842C2.24944 19.5241 2.96653 18.1023 4.28342 17.6694L52.5816 1.76032C53.8985 1.32551 55.3193 2.04316 55.7518 3.36106L65.4968 32.9917C65.9313 34.3096 65.2161 35.7295 63.8973 36.1643Z" fill="#3CB4E5"/>
<path d="M65.4995 32.9917L55.7545 3.36106C55.32 2.04316 53.9012 1.32551 52.5843 1.76032L50.5638 2.42602C50.6676 2.85121 50.7484 3.28216 50.8272 3.68234C52.8112 13.606 50.4389 21.9694 44.3754 30.3444C36.1914 41.6456 23.8915 44.7258 11.2147 46.569C11.6569 47.5617 11.7626 48.6699 12.0971 49.705C12.4316 50.7401 13.0968 51.779 14.1446 52.0676C14.9424 52.2869 15.7863 52.0253 16.5726 51.7655C32.3427 46.5536 48.1223 41.3647 63.8981 36.1681C65.2169 35.7295 65.932 34.3096 65.4995 32.9917Z" fill="#2D35A4"/>
<path d="M14.9669 53.2913C13.3289 53.2913 11.8006 52.2485 11.2604 50.6093L1.66146 21.4212C0.988598 19.378 2.10364 17.1693 4.1453 16.4959L51.9994 0.733102C54.043 0.0616475 56.2481 1.17562 56.921 3.21884C57.1209 3.82488 56.7902 4.47709 56.1866 4.67718C55.5829 4.87727 54.9293 4.54828 54.7294 3.94224C54.4544 3.10918 53.5528 2.6532 52.7204 2.92832L4.86623 18.6911C4.0338 18.9663 3.57817 19.8686 3.85308 20.7017L13.452 49.8898C13.7269 50.7228 14.6285 51.1788 15.461 50.9037L63.3151 35.1408C63.7188 35.0081 64.0476 34.7253 64.2379 34.3462C64.4301 33.9672 64.4609 33.5343 64.3283 33.1303L58.7166 15.9649C58.5185 15.3589 58.8492 14.7067 59.4548 14.5085C60.0604 14.3103 60.7121 14.6413 60.9101 15.2473L66.5199 32.4108C66.8448 33.3977 66.7659 34.4559 66.2969 35.3852C65.8278 36.3164 65.0242 37.0071 64.036 37.3322L16.1819 53.095C15.7801 53.2297 15.3706 53.2913 14.9669 53.2913Z" fill="#111F62"/>
<path d="M58.7507 12.9868C58.2508 12.9868 57.7914 12.6598 57.6433 12.1557L56.338 7.67674C56.1592 7.06493 56.511 6.42427 57.1223 6.24534C57.7337 6.06641 58.3739 6.41848 58.5527 7.0303L59.858 11.5092C60.0368 12.1211 59.685 12.7617 59.0737 12.9407C58.966 12.9715 58.8564 12.9868 58.7507 12.9868Z" fill="#111F62"/>
<path d="M25.6597 26.9738L12.6715 31.2526C11.8314 31.5297 10.9259 31.0718 10.6491 30.231L8.85157 24.767C8.57473 23.9262 9.03228 23.0201 9.8724 22.743L22.8606 18.4642C23.7007 18.1871 24.6062 18.645 24.8831 19.4858L26.6806 24.9498C26.9574 25.7905 26.5018 26.6967 25.6597 26.9738Z" fill="white"/>
<path d="M12.1679 32.4876C11.7431 32.4876 11.3201 32.3875 10.9299 32.1913C10.2724 31.8604 9.78406 31.2909 9.55336 30.5906L7.75586 25.1266C7.52516 24.4263 7.58091 23.6798 7.9135 23.0218C8.24609 22.3638 8.81322 21.8751 9.513 21.6442L22.5012 17.3654C23.9431 16.8902 25.506 17.679 25.9809 19.1219L27.7784 24.5859C28.2532 26.0308 27.465 27.593 26.0232 28.0683L13.035 32.3471C12.7504 32.4414 12.4582 32.4876 12.1679 32.4876ZM23.3625 19.5375C23.3163 19.5375 23.2683 19.5452 23.2221 19.5606L10.2339 23.8394C10.0801 23.8895 10.0051 24.0011 9.97438 24.0646C9.94362 24.1261 9.89749 24.2531 9.9494 24.407L11.7469 29.871C11.7969 30.0249 11.9084 30.1 11.9718 30.1327C12.0334 30.1635 12.1602 30.2096 12.314 30.1577L25.3022 25.8788C25.5368 25.8019 25.6656 25.546 25.5887 25.3113L23.7912 19.8473C23.7258 19.6587 23.5509 19.5375 23.3625 19.5375Z" fill="#111F62"/>
<path d="M39.5528 21.7731C39.0683 21.7731 38.6165 21.4653 38.457 20.9785C38.257 20.3725 38.5877 19.7203 39.1914 19.5202L51.9278 15.324C52.5333 15.1239 53.1851 15.4549 53.385 16.059C53.5849 16.665 53.2543 17.3172 52.6506 17.5173L39.9142 21.7135C39.795 21.7539 39.672 21.7731 39.5528 21.7731Z" fill="#111F62"/>
<path d="M41.3126 26.9509C40.8282 26.9509 40.3764 26.643 40.2168 26.1563C40.0169 25.5502 40.3475 24.898 40.9512 24.6979L53.6876 20.5018C54.2931 20.3017 54.9449 20.6326 55.1448 21.2367C55.3447 21.8428 55.0141 22.495 54.4104 22.6951L41.6741 26.8912C41.5529 26.9316 41.4318 26.9509 41.3126 26.9509Z" fill="#111F62"/>
<path d="M38.4187 66.9214H32.3937C30.9961 66.9214 29.8618 65.7863 29.8618 64.3876V27.9001C29.8618 26.5013 30.9961 25.3662 32.3937 25.3662H91.4251C92.8227 25.3662 93.957 26.5013 93.957 27.9001V64.3876C93.957 65.7863 92.8227 66.9214 91.4251 66.9214H49.5979" fill="white"/>
<path d="M91.4273 68.0754H49.5982C48.9618 68.0754 48.4447 67.5578 48.4447 66.921C48.4447 66.2842 48.9618 65.7666 49.5982 65.7666H91.4273C92.1866 65.7666 92.8057 65.1491 92.8057 64.3872V27.8996C92.8057 27.1397 92.1866 26.5202 91.4273 26.5202H32.3959C31.6365 26.5202 31.0175 27.1397 31.0175 27.8996V64.3872C31.0175 65.1471 31.6346 65.7666 32.3959 65.7666H38.4209C39.0572 65.7666 39.5744 66.2842 39.5744 66.921C39.5744 67.5578 39.0572 68.0754 38.4209 68.0754H32.3959C30.3638 68.0754 28.7105 66.4208 28.7105 64.3872V27.8996C28.7105 25.866 30.3638 24.2114 32.3959 24.2114H91.4273C93.4593 24.2114 95.1126 25.866 95.1126 27.8996V64.3872C95.1126 66.4208 93.4593 68.0754 91.4273 68.0754Z" fill="#111F62"/>
<path d="M94.0513 45.1455H29.9466V47.4542H94.0513V45.1455Z" fill="#111F62"/>
<path d="M93.6666 36.2052H86.6823C86.0459 36.2052 85.5288 35.6877 85.5288 35.0509C85.5288 34.414 86.0459 33.8965 86.6823 33.8965H93.6666C94.3029 33.8965 94.8201 34.414 94.8201 35.0509C94.8201 35.6877 94.3029 36.2052 93.6666 36.2052Z" fill="#111F62"/>
<path d="M82.7088 36.2047H29.9467C29.3103 36.2047 28.7932 35.6872 28.7932 35.0504C28.7932 34.4135 29.3103 33.896 29.9467 33.896H82.7088C83.3452 33.896 83.8623 34.4135 83.8623 35.0504C83.8623 35.6872 83.3452 36.2047 82.7088 36.2047Z" fill="#111F62"/>
<path d="M73.5503 63.7003C70.2167 63.7003 67.5061 60.9875 67.5061 57.6514C67.5061 54.3153 70.2167 51.6025 73.5503 51.6025C76.8838 51.6025 79.5945 54.3153 79.5945 57.6514C79.5945 60.9875 76.8838 63.7003 73.5503 63.7003ZM73.5503 53.9113C71.4894 53.9113 69.813 55.5889 69.813 57.6514C69.813 59.7139 71.4894 61.3916 73.5503 61.3916C75.6112 61.3916 77.2876 59.7139 77.2876 57.6514C77.2876 55.5889 75.6112 53.9113 73.5503 53.9113Z" fill="#111F62"/>
<path d="M78.5451 63.6998C75.2116 63.6998 72.5009 60.987 72.5009 57.6509C72.5009 54.3148 75.2116 51.6021 78.5451 51.6021C81.8787 51.6021 84.5894 54.3148 84.5894 57.6509C84.5894 60.987 81.8787 63.6998 78.5451 63.6998ZM78.5451 53.9108C76.4843 53.9108 74.8079 55.5884 74.8079 57.6509C74.8079 59.7134 76.4843 61.3911 78.5451 61.3911C80.606 61.3911 82.2824 59.7134 82.2824 57.6509C82.2824 55.5884 80.606 53.9108 78.5451 53.9108Z" fill="#111F62"/>
<path d="M45.9226 68.0748H42.0815C41.4452 68.0748 40.9281 67.5573 40.9281 66.9205C40.9281 66.2837 41.4452 65.7661 42.0815 65.7661H45.9226C46.559 65.7661 47.0761 66.2837 47.0761 66.9205C47.0761 67.5573 46.559 68.0748 45.9226 68.0748Z" fill="#111F62"/>
</svg>
