<?xml version="1.0" encoding="utf-8"?>
<!-- Generator: Adobe Illustrator 28.3.0, SVG Export Plug-In . SVG Version: 6.00 Build 0)  -->
<svg version="1.1" id="Capa_1" xmlns="http://www.w3.org/2000/svg" xmlns:xlink="http://www.w3.org/1999/xlink" x="0px" y="0px"
	 viewBox="0 0 18.5 21" style="enable-background:new 0 0 18.5 21;" xml:space="preserve">
<style type="text/css">
	.st0{fill:#3CB4E5;}
	.st1{fill:#DF1683;}
	.st2{fill:#C2D500;}
	.st3{fill:none;stroke:#3CB4E5;stroke-width:10;stroke-linecap:round;stroke-linejoin:round;stroke-miterlimit:10;}
	.st4{fill:none;stroke:#3CB4E5;stroke-width:10;stroke-linecap:round;stroke-linejoin:round;}
	.st5{fill:none;stroke:#3CB4E5;stroke-width:10;stroke-linecap:round;stroke-linejoin:round;stroke-dasharray:24.0556,24.0556;}
	.st6{fill:none;stroke:#3CB4E5;stroke-width:10;stroke-linecap:round;stroke-linejoin:round;stroke-dasharray:51.256,20.1004;}
	.st7{fill:none;stroke:#DF1683;stroke-width:10;stroke-linecap:round;stroke-linejoin:round;stroke-miterlimit:10;}
	.st8{fill:none;stroke:#C2D500;stroke-width:10;stroke-linecap:round;stroke-linejoin:round;stroke-miterlimit:10;}
	.st9{fill:none;stroke:#C2D500;stroke-width:10;stroke-miterlimit:10;}
	.st10{fill:#C2D500;stroke:#C2D500;stroke-width:10;stroke-linecap:round;stroke-linejoin:round;stroke-miterlimit:10;}
	.st11{fill:none;stroke:#DF1683;stroke-width:10;stroke-miterlimit:10;}
</style>
<g>
	<path class="st1" d="M17.2,16.7l0.8-0.8l0.5-0.5L18,14.8l-1-1l-0.5-0.5l-0.5,0.5l-0.4,0.4V10l1.3,1.3c0.2,0.2,0.4,0.3,0.7,0.3
		c0.3,0,0.5-0.1,0.7-0.3c0.2-0.2,0.3-0.4,0.3-0.7c0-0.3-0.1-0.5-0.3-0.7l-2.7-2.7V3.9c0-0.2-0.2-0.4-0.4-0.4c-0.2,0-0.4,0.2-0.4,0.4
		v2.6l-0.8-0.8L14,5.5c0.1-0.1,0.1-0.2,0.1-0.3s0-0.2-0.1-0.3l-0.9-0.9l0.3-0.3c0.1,0,0.1,0.1,0.2,0.1c0.1,0,0.2,0,0.3-0.1l1.1-1.1
		c0.1-0.1,0.1-0.4,0-0.5l-2-2C12.8,0,12.7,0,12.6,0c-0.1,0-0.2,0-0.3,0.1l-1.1,1.1c-0.1,0.1-0.1,0.3-0.1,0.5L8.5,4.3
		C8.4,4.2,8.2,4.3,8.1,4.4L7,5.5C6.9,5.6,6.9,5.8,7,6l2,2c0.1,0.1,0.2,0.1,0.3,0.1s0.2,0,0.3-0.1L10.7,7c0.1-0.1,0.1-0.3,0.1-0.5
		L11,6.2l0.9,0.9c0.1,0.1,0.2,0.1,0.3,0.1s0.2,0,0.3-0.1L12.5,7l2.2,2.2v5.1l-0.4-0.4l-0.5-0.5l-0.5,0.5l-1,1l-0.5,0.5l0.5,0.5
		l0.8,0.8l-0.8,0.8L11.8,18l0.5,0.5l1,1l0.5,0.5l0.5-0.5l0.4-0.4v0.6c0,0.3-0.3,0.6-0.6,0.6H1.3c-0.3,0-0.6-0.3-0.6-0.6v-12h5.4
		c0.2,0,0.4-0.2,0.4-0.4V1.9h3.8c0.2,0,0.4-0.2,0.4-0.4s-0.2-0.4-0.4-0.4H6.1c0,0,0,0,0,0c-0.1,0-0.2,0-0.3,0.1L0.1,7l0,0l0,0l0,0
		c0,0,0,0,0,0.1c0,0,0,0,0,0c0,0,0,0,0,0c0,0,0,0,0,0c0,0,0,0,0,0.1c0,0,0,0,0,0c0,0,0,0,0,0.1c0,0,0,0,0,0v12.4
		C0,20.4,0.6,21,1.3,21h12.9c0.7,0,1.3-0.6,1.3-1.3v-0.6l0.4,0.4l0.5,0.5l0.5-0.5l1-1l0.5-0.5L18,17.5L17.2,16.7z M9.1,4.9l2.7-2.7
		l1.1,1.1L10.2,6L9.1,4.9z M12.6,0.9l1.5,1.5l-0.5,0.5l-1.5-1.5L12.6,0.9z M9.3,7.2L7.8,5.7l0.5-0.5l1.5,1.5L9.3,7.2z M11.6,5.7l1-1
		l0.6,0.6l-0.1,0.1c0,0,0,0,0,0l-0.4,0.4l-0.5,0.5L11.6,5.7z M13.4,6.1l4.3,4.3c0,0,0.1,0.1,0.1,0.2s0,0.1-0.1,0.2
		c-0.1,0.1-0.2,0.1-0.3,0l-4.3-4.3L13.4,6.1z M1.3,6.9l4.5-4.5v4.5H1.3z M16.4,19l-1.3-1.3L13.8,19l-1-1l1.3-1.3l-1.3-1.3l1-1
		l1.3,1.3l1.3-1.3l1,1l-1.3,1.3l1.3,1.3L16.4,19z"/>
	<path class="st1" d="M8,8.1C8,8,7.9,8,7.8,8C7.7,8,7.6,8,7.6,8.1C7.5,8.2,7.5,8.2,7.5,8.3v0.5C7.2,8.8,7,8.9,6.8,9
		C6.6,9.1,6.4,9.3,6.3,9.5c-0.1,0.2-0.2,0.4-0.2,0.7c0,0.3,0.1,0.6,0.3,0.8c0.2,0.2,0.5,0.4,0.9,0.4L8,11.6c0.2,0,0.3,0.1,0.4,0.1
		c0.1,0.1,0.2,0.1,0.2,0.2c0,0.1,0.1,0.2,0.1,0.3c0,0.1,0,0.2-0.1,0.3c-0.1,0.1-0.2,0.2-0.3,0.2c-0.1,0.1-0.3,0.1-0.5,0.1
		c-0.3,0-0.5,0-0.7-0.1c-0.2-0.1-0.4-0.1-0.5-0.2c-0.1-0.1-0.2-0.1-0.2-0.1c-0.1,0-0.1,0.1-0.2,0.1c0,0.1-0.1,0.1-0.1,0.2
		c0,0.1,0,0.1,0,0.2c0,0.1,0.1,0.1,0.2,0.2c0.2,0.1,0.4,0.2,0.6,0.2c0.2,0.1,0.4,0.1,0.7,0.1v0.4c0,0.1,0,0.2,0.1,0.2
		c0.1,0.1,0.1,0.1,0.2,0.1c0.1,0,0.2,0,0.2-0.1c0.1-0.1,0.1-0.1,0.1-0.2v-0.5c0.2,0,0.5-0.1,0.6-0.2C9,13.1,9.2,13,9.3,12.8
		c0.1-0.2,0.2-0.4,0.2-0.7c0-0.3-0.1-0.6-0.3-0.8C9,11.1,8.7,11,8.3,10.9l-0.7-0.2c-0.2-0.1-0.4-0.1-0.5-0.2
		c-0.1-0.1-0.1-0.2-0.1-0.4C6.9,10,7,9.8,7.1,9.7c0.2-0.1,0.4-0.2,0.7-0.2c0.2,0,0.4,0,0.6,0.1c0.2,0,0.3,0.1,0.4,0.2
		C8.9,9.8,9,9.8,9,9.8c0.1,0,0.1,0,0.2-0.1c0,0,0.1-0.1,0.1-0.2c0-0.1,0-0.1,0-0.2c0-0.1-0.1-0.1-0.1-0.2C9,9.1,8.8,9,8.6,8.9
		C8.4,8.8,8.3,8.8,8.1,8.8V8.3C8.1,8.2,8.1,8.2,8,8.1z"/>
	<path class="st1" d="M10.9,16H4.6c-0.2,0-0.4,0.2-0.4,0.4s0.2,0.4,0.4,0.4h6.3c0.2,0,0.4-0.2,0.4-0.4S11.1,16,10.9,16z"/>
	<path class="st1" d="M10.9,17.6H4.6c-0.2,0-0.4,0.2-0.4,0.4s0.2,0.4,0.4,0.4h6.3c0.2,0,0.4-0.2,0.4-0.4S11.1,17.6,10.9,17.6z"/>
</g>
</svg>
