<svg width="108" height="33" viewBox="0 0 108 33" fill="none" xmlns="http://www.w3.org/2000/svg">
<mask id="mask0_436_5055" style="mask-type:luminance" maskUnits="userSpaceOnUse" x="0" y="0" width="108" height="33">
<path d="M0.577515 0.688537H107.118V32.2559H0.577515V0.688537Z" fill="white"/>
</mask>
<g mask="url(#mask0_436_5055)">
<path d="M103.172 32.2554H4.52349C2.3532 32.2554 0.577515 30.4798 0.577515 28.3094V4.63395C0.577515 2.46357 2.3532 0.688016 4.52349 0.688016H103.172C105.342 0.688016 107.118 2.46357 107.118 4.63395V28.3094C107.118 30.4798 105.342 32.2554 103.172 32.2554Z" fill="#100F0D"/>
<path d="M103.172 0.688537H4.52349C2.3532 0.688537 0.577515 2.46409 0.577515 4.63447V28.31C0.577515 30.4803 2.3532 32.2559 4.52349 32.2559H103.172C105.342 32.2559 107.118 30.4803 107.118 28.31V4.63447C107.118 2.46409 105.342 0.688537 103.172 0.688537ZM103.172 1.31986C104.999 1.31986 106.486 2.80664 106.486 4.63447V28.31C106.486 30.1378 104.999 31.6246 103.172 31.6246H4.52349C2.69568 31.6246 1.20892 30.1378 1.20892 28.31V4.63447C1.20892 2.80664 2.69568 1.31986 4.52349 1.31986H103.172Z" fill="#A2A2A1"/>
<path d="M84.9699 24.3642H86.4424V14.4987H84.9699V24.3642ZM98.2336 18.0523L96.5456 22.3298H96.495L94.743 18.0523H93.1568L95.784 24.0305L94.2862 27.3561H95.8219L99.8713 18.0523H98.2336ZM89.8826 23.2436C89.3995 23.2436 88.7271 23.0021 88.7271 22.4055C88.7271 21.644 89.5644 21.3527 90.2881 21.3527C90.9353 21.3527 91.2399 21.4925 91.6337 21.6826C91.5193 22.5964 90.7324 23.2436 89.8826 23.2436ZM90.06 17.8369C88.9938 17.8369 87.889 18.3065 87.4322 19.3466L88.7397 19.8927C89.019 19.3466 89.5392 19.169 90.0853 19.169C90.8469 19.169 91.621 19.626 91.6337 20.4381V20.5398C91.367 20.3876 90.7956 20.1595 90.098 20.1595C88.6892 20.1595 87.2545 20.9337 87.2545 22.3802C87.2545 23.7006 88.4098 24.5506 89.7041 24.5506C90.6945 24.5506 91.2399 24.107 91.5833 23.5861H91.6337V24.3477H93.055V20.5651C93.055 18.8139 91.7482 17.8369 90.06 17.8369ZM80.9591 19.2535H78.8646V15.8711H80.9591C82.0601 15.8711 82.685 16.7834 82.685 17.5623C82.685 18.3271 82.0601 19.2535 80.9591 19.2535ZM80.9213 14.4987H77.3928V24.3642H78.8646V20.6267H80.9213C82.5534 20.6267 84.1578 19.4444 84.1578 17.5623C84.1578 15.6801 82.5534 14.4987 80.9213 14.4987ZM61.6801 23.2453C60.6629 23.2453 59.8114 22.3937 59.8114 21.2241C59.8114 20.0419 60.6629 19.1769 61.6801 19.1769C62.6847 19.1769 63.4724 20.0419 63.4724 21.2241C63.4724 22.3937 62.6847 23.2453 61.6801 23.2453ZM63.3706 18.6048H63.3201C62.9895 18.211 62.3542 17.8542 61.5532 17.8542C59.8744 17.8542 58.3363 19.3293 58.3363 21.2241C58.3363 23.1055 59.8744 24.5679 61.5532 24.5679C62.3542 24.5679 62.9895 24.212 63.3201 23.8049H63.3706V24.2877C63.3706 25.5725 62.6847 26.2584 61.5784 26.2584C60.6754 26.2584 60.116 25.6104 59.8871 25.0635L58.603 25.5979C58.9716 26.4879 59.9511 27.5811 61.5784 27.5811C63.3074 27.5811 64.7698 26.5638 64.7698 24.0848V18.0579H63.3706V18.6048ZM65.7862 24.3642H67.2613V14.4979H65.7862V24.3642ZM69.4355 21.1097C69.3977 19.8122 70.44 19.1517 71.1897 19.1517C71.7754 19.1517 72.271 19.4438 72.4359 19.8635L69.4355 21.1097ZM74.0127 19.9907C73.7325 19.2401 72.881 17.8542 71.1393 17.8542C69.4102 17.8542 67.9739 19.2149 67.9739 21.2114C67.9739 23.0929 69.3977 24.5679 71.3044 24.5679C72.8433 24.5679 73.7325 23.6272 74.102 23.0803L72.9577 22.3171C72.5756 22.8766 72.0548 23.2453 71.3044 23.2453C70.5545 23.2453 70.0203 22.9019 69.6769 22.2288L74.1651 20.3718L74.0127 19.9907ZM38.2564 18.885V20.3086H41.6633C41.5614 21.1097 41.2947 21.6945 40.8884 22.1009C40.3919 22.5972 39.6161 23.1435 38.2564 23.1435C36.1579 23.1435 34.5181 21.453 34.5181 19.3546C34.5181 17.2569 36.1579 15.5664 38.2564 15.5664C39.3881 15.5664 40.2143 16.0107 40.8244 16.5829L41.8289 15.5791C40.9768 14.7654 39.8457 14.142 38.2564 14.142C35.3829 14.142 32.9673 16.4819 32.9673 19.3546C32.9673 22.2288 35.3829 24.5679 38.2564 24.5679C39.8071 24.5679 40.9768 24.0588 41.8921 23.1055C42.8328 22.1648 43.1257 20.843 43.1257 19.7744C43.1257 19.4438 43.1003 19.1392 43.049 18.885H38.2564ZM46.9989 23.2453C45.9825 23.2453 45.1049 22.4063 45.1049 21.2114C45.1049 20.0032 45.9825 19.1769 46.9989 19.1769C48.0161 19.1769 48.8937 20.0032 48.8937 21.2114C48.8937 22.4063 48.0161 23.2453 46.9989 23.2453ZM46.9989 17.8542C45.1427 17.8542 43.6299 19.2662 43.6299 21.2114C43.6299 23.1435 45.1427 24.5679 46.9989 24.5679C48.8551 24.5679 50.3688 23.1435 50.3688 21.2114C50.3688 19.2662 48.8551 17.8542 46.9989 17.8542ZM54.3493 23.2453C53.3323 23.2453 52.4545 22.4063 52.4545 21.2114C52.4545 20.0032 53.3323 19.1769 54.3493 19.1769C55.3667 19.1769 56.2435 20.0032 56.2435 21.2114C56.2435 22.4063 55.3667 23.2453 54.3493 23.2453ZM54.3493 17.8542C52.4933 17.8542 50.9803 19.2662 50.9803 21.2114C50.9803 23.1435 52.4933 24.5679 54.3493 24.5679C56.2055 24.5679 57.7184 23.1435 57.7184 21.2114C57.7184 19.2662 56.2055 17.8542 54.3493 17.8542Z" fill="white"/>
<path d="M16.9271 16.0172L8.52466 24.9351C8.52543 24.9366 8.52543 24.939 8.52627 24.9405C8.78428 25.9089 9.66817 26.6216 10.7178 26.6216C11.1376 26.6216 11.5315 26.5079 11.8692 26.3091L11.896 26.2932L21.3537 20.8361L16.9271 16.0172Z" fill="#EB3131"/>
<path d="M25.4276 14.4991L25.4197 14.4935L21.3363 12.1267L16.7362 16.2203L21.3528 20.8354L25.4141 18.4924C26.1259 18.1071 26.6097 17.3567 26.6097 16.4917C26.6097 15.6315 26.133 14.8849 25.4276 14.4991Z" fill="#F6B60B"/>
<path d="M8.52463 8.00984C8.47407 8.19604 8.44727 8.3918 8.44727 8.59383V24.3523C8.44727 24.5544 8.47407 24.75 8.52541 24.9355L17.2159 16.2457L8.52463 8.00984Z" fill="#5778C5"/>
<path d="M16.9893 16.4727L21.3376 12.125L11.8911 6.64805C11.5478 6.44206 11.1469 6.32365 10.7183 6.32365C9.66876 6.32365 8.78328 7.03793 8.52519 8.00701C8.52519 8.00784 8.52441 8.00866 8.52441 8.00932L16.9893 16.4727Z" fill="#3BAD49"/>
</g>
<mask id="mask1_436_5055" style="mask-type:luminance" maskUnits="userSpaceOnUse" x="0" y="0" width="108" height="33">
<path d="M0.577515 0.688368H107.118V32.2559H0.577515V0.688368Z" fill="white"/>
</mask>
<g mask="url(#mask1_436_5055)">
<path d="M35.1044 10.3386C35.663 10.3386 36.0966 10.1843 36.4055 9.87519C36.7144 9.56629 36.869 9.13947 36.869 8.59473C36.869 8.05015 36.7144 7.62317 36.4055 7.31427C36.0966 7.00537 35.663 6.85084 35.1044 6.85084H34.308V10.3386H35.1044ZM33.5529 6.13672H35.1251C35.6332 6.13672 36.076 6.2398 36.4535 6.44562C36.8312 6.65177 37.1218 6.94121 37.3256 7.31427C37.5293 7.68732 37.6311 8.11414 37.6311 8.59473C37.6311 9.07531 37.5293 9.5023 37.3256 9.87519C37.1218 10.2484 36.8312 10.5378 36.4535 10.7438C36.076 10.9498 35.6332 11.0527 35.1251 11.0527H33.5529V6.13672Z" fill="white"/>
<path d="M38.6196 6.13672H41.5996V6.85084H39.3748V8.23767H41.3798V8.95179H39.3748V10.3386H41.5996V11.0527H38.6196V6.13672Z" fill="white"/>
<path d="M42.9246 10.8057C42.5996 10.5677 42.373 10.2334 42.245 9.80314L42.9589 9.51486C43.0322 9.78945 43.1626 10.0137 43.3503 10.1876C43.538 10.3617 43.7646 10.4486 44.0301 10.4486C44.2772 10.4486 44.4866 10.3845 44.6583 10.2563C44.83 10.1282 44.9158 9.9519 44.9158 9.72761C44.9158 9.52162 44.8402 9.35125 44.6891 9.21618C44.5381 9.08111 44.2772 8.9495 43.9064 8.82136L43.5975 8.71152C43.2632 8.59261 42.9853 8.42653 42.7632 8.21378C42.5414 8.00087 42.4304 7.71835 42.4304 7.36575C42.4304 7.12315 42.4955 6.89885 42.626 6.69303C42.7564 6.48688 42.9395 6.32459 43.1752 6.20536C43.411 6.08645 43.6775 6.02691 43.9752 6.02691C44.4009 6.02691 44.7418 6.13114 44.9982 6.33927C45.2545 6.54773 45.4283 6.78226 45.52 7.04316L44.8402 7.33145C44.7945 7.16669 44.6984 7.02486 44.5519 6.90578C44.4053 6.78671 44.2155 6.72717 43.982 6.72717C43.7578 6.72717 43.5677 6.78671 43.4122 6.90578C43.2565 7.02486 43.1788 7.17592 43.1788 7.35899C43.1788 7.5282 43.2486 7.66904 43.3881 7.78119C43.5276 7.8935 43.744 7.99971 44.0369 8.10048L44.3527 8.21032C44.7739 8.35677 45.0986 8.54676 45.3277 8.78013C45.5566 9.01366 45.6709 9.32503 45.6709 9.71392C45.6709 10.0344 45.5898 10.3034 45.4273 10.5207C45.2647 10.7381 45.0566 10.8994 44.8026 11.0048C44.5483 11.11 44.2886 11.1626 44.0232 11.1626C43.6157 11.1626 43.2495 11.0437 42.9246 10.8057Z" fill="white"/>
<path d="M47.6036 10.8262C47.2123 10.602 46.9044 10.293 46.6801 9.89929C46.4558 9.50562 46.3436 9.07089 46.3436 8.59475C46.3436 8.11879 46.4558 7.68389 46.6801 7.29022C46.9044 6.89655 47.2123 6.58765 47.6036 6.36335C47.995 6.13906 48.4286 6.02691 48.9047 6.02691C49.6416 6.02691 50.248 6.29458 50.7241 6.83025L50.1956 7.34514C50.026 7.14376 49.8373 6.9927 49.629 6.89209C49.4206 6.79149 49.1816 6.74102 48.9116 6.74102C48.5773 6.74102 48.2729 6.81771 47.9983 6.97109C47.7237 7.12447 47.5063 7.34184 47.346 7.62319C47.1859 7.90472 47.1057 8.22863 47.1057 8.59475C47.1057 8.96105 47.1859 9.28479 47.346 9.56631C47.5063 9.84784 47.7237 10.0652 47.9983 10.2186C48.2729 10.372 48.5773 10.4486 48.9116 10.4486C49.4699 10.4486 49.9391 10.2176 50.3191 9.75515L50.8615 10.277C50.6234 10.5562 50.3374 10.7737 50.0033 10.9292C49.669 11.0848 49.303 11.1626 48.9047 11.1626C48.4286 11.1626 47.995 11.0506 47.6036 10.8262Z" fill="white"/>
<path d="M54.3836 9.08916L53.8342 7.5821L53.6489 7.01906H53.6076L53.4223 7.5821L52.8731 9.08916H54.3836ZM53.1958 6.13672H54.0539L55.9146 11.0527H55.0838L54.6306 9.78943H52.6258L52.1728 11.0527H51.3419L53.1958 6.13672Z" fill="white"/>
<path d="M58.3589 8.42997C58.597 8.42997 58.7972 8.35444 58.9598 8.20337C59.1221 8.0523 59.2036 7.86247 59.2036 7.63356C59.2036 7.42295 59.1291 7.23873 58.9803 7.0809C58.8317 6.92291 58.6338 6.84391 58.3864 6.84391H57.4116V8.42997H58.3589ZM56.6564 6.13672H58.3795C58.677 6.13672 58.946 6.20088 59.1863 6.32902C59.4266 6.45717 59.6164 6.63578 59.7563 6.86452C59.8958 7.09344 59.9657 7.35204 59.9657 7.64049C59.9657 7.97 59.8592 8.26175 59.6464 8.51573C59.4335 8.76987 59.1668 8.9404 58.8465 9.02732L58.8396 9.06162L60.1923 11.0115V11.0527H59.3204L58.0087 9.12347H57.4116V11.0527H56.6564V6.13672Z" fill="white"/>
<path d="M61.9497 10.8262C61.556 10.602 61.2437 10.2941 61.0124 9.90275C60.7814 9.51139 60.6658 9.07534 60.6658 8.59475C60.6658 8.11417 60.7814 7.67811 61.0124 7.28675C61.2437 6.89556 61.556 6.58765 61.9497 6.36335C62.3434 6.13906 62.7736 6.02691 63.2405 6.02691C63.6157 6.02691 63.9614 6.09337 64.2772 6.22597C64.5931 6.3589 64.8607 6.54427 65.0806 6.78225L64.5588 7.30407C64.2246 6.92871 63.7851 6.74102 63.2405 6.74102C62.9201 6.74102 62.6201 6.81771 62.3411 6.97109C62.0618 7.12447 61.8399 7.34299 61.6751 7.62666C61.5103 7.91049 61.4279 8.23324 61.4279 8.59475C61.4279 8.96105 61.5115 9.28479 61.6784 9.56631C61.8455 9.84784 62.0676 10.0652 62.3445 10.2186C62.6214 10.372 62.9222 10.4486 63.2473 10.4486C63.7647 10.4486 64.1857 10.2862 64.5106 9.96114C64.616 9.86037 64.7041 9.73223 64.7751 9.57654C64.8459 9.42102 64.8952 9.24933 64.9226 9.06165H63.2336V8.39569H65.6229C65.6504 8.55138 65.6641 8.68398 65.6641 8.79381C65.6641 9.10519 65.6149 9.40155 65.5166 9.68308C65.418 9.96444 65.266 10.2128 65.06 10.428C64.8403 10.666 64.5771 10.8479 64.2703 10.9739C63.9637 11.0996 63.6204 11.1626 63.2405 11.1626C62.7736 11.1626 62.3434 11.0506 61.9497 10.8262Z" fill="white"/>
<path d="M69.0424 9.08916L68.4931 7.5821L68.3077 7.01906H68.2665L68.0811 7.5821L67.5319 9.08916H69.0424ZM67.8547 6.13672H68.7128L70.5734 11.0527H69.7427L69.2895 9.78943H67.2847L66.8317 11.0527H66.0006L67.8547 6.13672Z" fill="white"/>
<path d="M73.0176 8.42997C73.2558 8.42997 73.456 8.35444 73.6186 8.20337C73.7809 8.0523 73.8622 7.86247 73.8622 7.63356C73.8622 7.42295 73.7878 7.23873 73.639 7.0809C73.4904 6.92291 73.2924 6.84391 73.0451 6.84391H72.0701V8.42997H73.0176ZM71.3149 6.13672H73.0382C73.3357 6.13672 73.6047 6.20088 73.845 6.32902C74.0853 6.45717 74.2751 6.63578 74.415 6.86452C74.5545 7.09344 74.6244 7.35204 74.6244 7.64049C74.6244 7.97 74.5179 8.26175 74.3052 8.51573C74.0922 8.76987 73.8256 8.9404 73.5051 9.02732L73.4982 9.06162L74.851 11.0115V11.0527H73.9789L72.6675 9.12347H72.0701V11.0527H71.3149V6.13672Z" fill="white"/>
<path d="M77.1027 6.13672H80.0825V6.85084H77.8578V8.23767H79.8626V8.95179H77.8578V10.3386H80.0825V11.0527H77.1027V6.13672Z" fill="white"/>
<path d="M81.1396 6.13672H82.0322L84.2568 9.74819H84.2981L84.2568 8.80072V6.13672H85.0053V11.0527H84.2225L81.8881 7.25588H81.8468L81.8881 8.20337V11.0527H81.1396V6.13672Z" fill="white"/>
</g>
</svg>
