<svg width="69" height="70" viewBox="0 0 69 70" fill="none" xmlns="http://www.w3.org/2000/svg">
<path d="M51.5006 52.7744L12.4983 61.2717C4.73306 45.8981 0.823159 28.88 1.1027 11.674L1.13719 9.58306L40.1377 1.08398L40.1032 3.12063C39.8164 20.3249 43.7172 37.3412 51.4716 52.7166L51.5006 52.7744Z" fill="white"/>
<path d="M12.4987 62.3556C12.0938 62.3556 11.7145 62.1299 11.5257 61.7578C3.71328 46.292 -0.267409 28.9667 0.0139455 11.6558L0.0484357 9.56487C0.0556821 9.0625 0.41152 8.63058 0.905179 8.52397L39.9057 0.0248259C40.2306 -0.0456171 40.5719 0.0356951 40.8278 0.245282C41.0856 0.454939 41.2326 0.771201 41.2272 1.10189L41.1927 3.1386C40.9095 20.097 44.8012 37.0736 52.4449 52.2303L52.4739 52.2881C52.6246 52.5881 52.6282 52.9387 52.483 53.2405C52.3378 53.5423 52.0619 53.761 51.7333 53.8315L12.731 62.3326C12.6547 62.3486 12.5749 62.3556 12.4987 62.3556ZM2.2121 10.4576L2.19217 11.6901C1.91988 28.372 5.68994 45.0685 13.0958 60.0319L49.9073 52.0116C42.496 36.8495 38.7332 19.9688 39.0163 3.10425L39.0272 2.43738L2.2121 10.4576Z" fill="#111F62"/>
<path d="M61.5805 45.4426C63.0346 45.251 62.8096 43.2198 63.5788 43.8885C64.4721 44.6656 66.1729 46.5161 66.5213 47.0004C67.8263 48.8094 67.5685 51.9755 65.4796 55.776C61.9254 62.2365 54.4179 68.0845 48.7092 68.8363C46.7234 69.0983 45.2187 68.7102 44.2475 67.819C43.9481 67.5445 41.5266 65.1211 41.3306 64.756C40.3359 62.8978 42.8716 62.0233 44.8102 58.503C48.3643 52.0424 55.8718 46.1944 61.5805 45.4426Z" fill="white"/>
<path d="M47.5436 70C45.4925 70 44.2345 69.283 43.5085 68.6162C43.4831 68.5925 40.7022 65.8891 40.3682 65.2654C39.4171 63.4894 40.5461 62.2115 41.6407 60.9769C42.3413 60.1853 43.1364 59.2874 43.8533 57.9826C45.6413 54.7315 48.433 51.5346 51.7148 48.9793C55.0329 46.3951 58.4853 44.7578 61.4349 44.3674C61.5784 44.3494 61.6585 44.2681 61.8906 43.7964C62.0794 43.4133 62.3644 42.8331 63.0486 42.6958C63.3503 42.6362 63.8095 42.6524 64.2937 43.0717C65.2525 43.9048 67.0055 45.8131 67.4048 46.368C69.0241 48.6125 68.6701 52.2304 66.4321 56.2965C64.6442 59.5476 61.8522 62.7446 58.5707 65.2996C55.2526 67.8839 51.8001 69.5213 48.8505 69.9115C48.384 69.9714 47.9484 70 47.5436 70ZM42.2724 64.2098C42.5918 64.6349 44.6157 66.6827 44.9842 67.022C45.7393 67.716 46.9791 67.971 48.5637 67.7613C53.9602 67.0492 61.1193 61.4381 64.5223 55.2538C66.3143 51.9991 66.7296 49.1492 65.635 47.633C65.4051 47.3149 64.3738 46.1728 63.5259 45.3324C63.1991 45.8349 62.6584 46.3951 61.722 46.518C56.3253 47.23 49.1663 52.8412 45.7629 59.0254C44.9298 60.5414 44.0113 61.5789 43.2743 62.4122C42.1852 63.6427 42.0945 63.8559 42.2724 64.2098ZM42.2905 64.2426C42.2905 64.2426 42.2905 64.2447 42.2923 64.2447C42.2905 64.2447 42.2905 64.2447 42.2905 64.2426Z" fill="#111F62"/>
<path d="M59.1731 42.9633C64.8797 42.2096 66.6258 46.8359 63.0723 53.2948C59.518 59.7536 52.0104 65.6014 46.3018 66.3553C40.5949 67.1085 38.8487 62.4827 42.4028 56.0218C45.9569 49.563 53.4644 43.7168 59.1731 42.9633Z" fill="white"/>
<path d="M45.1513 67.5187C43.0493 67.5187 41.3957 66.7669 40.4155 65.3448C38.8672 63.095 39.2429 59.5078 41.4483 55.5013C43.2363 52.2502 46.028 49.0533 49.3098 46.498C52.6279 43.9137 56.0803 42.2765 59.0299 41.8861C61.747 41.5265 63.8875 42.2674 65.0601 43.9715C66.6084 46.2215 66.2328 49.8087 64.0268 53.8152C62.2389 57.0663 59.4474 60.2633 56.1657 62.8184C52.8475 65.4027 49.3951 67.0401 46.4454 67.4303C45.9971 67.4902 45.5651 67.5187 45.1513 67.5187ZM59.3149 44.0366C53.9184 44.7486 46.7595 50.3599 43.3578 56.5441C41.5881 59.759 41.1597 62.5905 42.2125 64.1199C43.0892 65.3936 44.8427 65.4549 46.1586 65.2814C51.5552 64.5693 58.7141 58.9584 62.1177 52.7743C63.8875 49.5593 64.316 46.7275 63.2632 45.1986C62.3846 43.9246 60.6309 43.8631 59.3149 44.0366Z" fill="#111F62"/>
<path d="M58.4832 29.995C58.7174 31.4352 60.7503 31.1533 60.1005 31.9395C59.3472 32.8503 57.5375 34.5978 57.0619 34.9593C55.2831 36.311 52.0975 36.1466 48.2221 34.1767C41.6331 30.8263 35.545 23.5235 34.6229 17.8652C34.3017 15.8972 34.6484 14.3882 35.5142 13.3961C35.781 13.0907 38.1444 10.6095 38.5038 10.4053C40.3389 9.36073 41.2918 11.86 44.8823 13.6871C51.4731 17.0339 57.5611 24.3367 58.4832 29.995Z" fill="white"/>
<path d="M54.067 36.9215C52.221 36.9215 50.0537 36.3252 47.7267 35.1414C44.4122 33.4554 41.1195 30.7699 38.4585 27.5784C35.7684 24.3508 34.0241 20.9624 33.5466 18.0384C33.0874 15.2228 33.9152 13.5729 34.692 12.6838C34.7156 12.6567 37.3349 9.81942 37.9629 9.46156C39.72 8.46219 41.0342 9.55012 42.3066 10.6019C43.1216 11.276 44.0474 12.0404 45.3779 12.7181C48.6924 14.4042 51.9851 17.0896 54.6461 20.2811C57.3362 23.5087 59.0805 26.8972 59.5579 29.8211C59.5815 29.9621 59.665 30.0416 60.1442 30.2585C60.5345 30.4356 61.1241 30.7012 61.2823 31.379C61.3513 31.6771 61.3492 32.1343 60.9395 32.6295C60.1315 33.6071 58.2637 35.4089 57.721 35.8209C56.7553 36.5547 55.5101 36.9197 54.067 36.9215ZM39.081 11.3248C38.6636 11.6555 36.6669 13.7283 36.3366 14.106C35.6631 14.8777 35.4417 16.1174 35.6976 17.6896C36.5689 23.0406 42.4101 30.0019 48.7177 33.2078C52.0377 34.8957 54.9111 35.2264 56.4013 34.0951C56.7153 33.8565 57.8299 32.7976 58.6503 31.9283C58.1366 31.6175 57.5594 31.0952 57.4088 30.1663C56.5375 24.8171 50.6963 17.8541 44.3886 14.6481C42.8421 13.8621 41.7747 12.9783 40.9162 12.2699C39.6474 11.2218 39.4314 11.1386 39.081 11.3248Z" fill="#111F62"/>
<path d="M60.9033 27.5279C61.8251 33.1862 57.2312 35.0566 50.6421 31.7079C44.0531 28.3593 37.965 21.0565 37.0429 15.3982C36.1208 9.74 40.715 7.8696 47.3041 11.2183C53.8931 14.567 59.9811 21.8697 60.9033 27.5279Z" fill="white"/>
<path d="M56.4869 34.451C54.639 34.451 52.4699 33.8546 50.1465 32.6728C46.832 30.9867 43.5393 28.3012 40.8783 25.1097C38.1882 21.8822 36.4438 18.4955 35.9665 15.5697C35.5272 12.877 36.2097 10.7247 37.8851 9.50844C40.0978 7.90372 43.7117 8.17295 47.7977 10.2512C51.1121 11.9373 54.4048 14.6228 57.0659 17.8142C59.7559 21.0418 61.5004 24.4284 61.9776 27.3543C62.4173 30.0469 61.7345 32.1992 60.0591 33.4155C59.1043 34.1076 57.8881 34.451 56.4869 34.451ZM41.461 10.6343C40.5316 10.6343 39.7493 10.8422 39.1702 11.2632C37.916 12.1741 37.9069 13.9197 38.1193 15.2246C38.9905 20.5756 44.8317 27.5368 51.1394 30.7427C54.4194 32.4107 57.2746 32.7541 58.7776 31.6625C60.0319 30.7517 60.0409 29.006 59.8285 27.7012C58.9573 22.3502 53.1161 15.389 46.8084 12.183C44.7936 11.1584 42.9403 10.6343 41.461 10.6343Z" fill="#111F62"/>
<path d="M22.7065 53.4282C29.0753 53.4282 34.2382 48.288 34.2382 41.9473C34.2382 35.6066 29.0753 30.4663 22.7065 30.4663C16.3377 30.4663 11.1748 35.6066 11.1748 41.9473C11.1748 48.288 16.3377 53.4282 22.7065 53.4282Z" fill="white"/>
<path d="M22.7069 54.5128C15.7476 54.5128 10.0861 48.8762 10.0861 41.9476C10.0861 35.0189 15.7476 29.3823 22.7069 29.3823C29.6662 29.3823 35.3277 35.0189 35.3277 41.9476C35.3277 48.8762 29.6662 54.5128 22.7069 54.5128ZM22.7069 31.5509C16.9492 31.5509 12.2642 36.2152 12.2642 41.9476C12.2642 47.6799 16.9492 52.3442 22.7069 52.3442C28.4646 52.3442 33.1495 47.6799 33.1495 41.9476C33.1495 36.2152 28.4646 31.5509 22.7069 31.5509Z" fill="#111F62"/>
<path d="M22.8883 49.0927C22.8448 49.0927 22.7994 49.0909 22.7558 49.0891C21.9299 49.044 21.1839 48.5886 20.7683 47.8765L16.2721 40.1545C15.5932 38.9889 15.9926 37.4961 17.1633 36.8203C18.3341 36.1444 19.8334 36.542 20.5123 37.7076L23.1315 42.2056L33.7956 27.7627C34.5979 26.6766 36.1317 26.4435 37.2208 27.2422C38.3118 28.041 38.5459 29.5681 37.7436 30.6524L24.8632 48.097C24.3985 48.7259 23.6652 49.0927 22.8883 49.0927Z" fill="#2D35A4"/>
<path d="M37.2206 27.2422C36.1297 26.4435 34.5958 26.6766 33.7953 27.7627L24.9719 39.7117C25.1062 42.5978 25.2005 45.482 24.6869 48.3066C24.7486 48.2398 24.8066 48.1711 24.8629 48.097L37.7433 30.6524C38.5438 29.5681 38.3114 28.041 37.2206 27.2422Z" fill="#3CB4E5"/>
<path d="M22.8883 50.177C22.8248 50.177 22.7612 50.1752 22.6995 50.1716C21.4997 50.1066 20.4269 49.4524 19.8261 48.4205L15.33 40.6985C14.8562 39.8834 14.7292 38.9347 14.9706 38.0257C15.2138 37.1167 15.7983 36.3541 16.6151 35.8823C17.4338 35.4107 18.3867 35.2824 19.2998 35.5245C20.2127 35.7667 20.977 36.3486 21.4525 37.1636L23.2368 40.2286L32.9153 27.1212C34.0715 25.5562 36.2915 25.2183 37.8634 26.3695C38.6258 26.926 39.1231 27.7465 39.2665 28.6772C39.4099 29.6079 39.1793 30.5386 38.6185 31.2958L25.7381 48.7404C25.0755 49.6403 24.01 50.177 22.8883 50.177ZM18.3885 37.5757C18.1525 37.5757 17.9184 37.6371 17.7079 37.7582C17.3938 37.9407 17.1687 38.2335 17.0744 38.5823C16.98 38.931 17.0289 39.2979 17.2123 39.6105L21.7084 47.3326C21.939 47.7301 22.3529 47.9813 22.8121 48.0066C22.8356 48.0084 22.8611 48.0084 22.8865 48.0084C23.3185 48.0084 23.7269 47.8025 23.9829 47.4555L36.8632 30.0109C37.0792 29.7199 37.1664 29.3621 37.1119 29.0043C37.0575 28.6465 36.865 28.332 36.5728 28.117C35.9684 27.6742 35.1134 27.8043 34.6687 28.4061L23.019 44.1827L19.5647 38.2516C19.3832 37.9389 19.0874 37.7148 18.7371 37.6208C18.6245 37.5901 18.5065 37.5757 18.3885 37.5757Z" fill="#111F62"/>
<path d="M12.9645 25.3194V26.3622H11.1348V25.2689C9.52112 25.0538 8.03994 24.4412 6.87648 23.4129L8.67344 21.2768C9.83697 22.1876 11.1022 22.6683 12.4508 22.6683C13.333 22.6683 13.7977 22.3702 13.7977 21.8732C13.7977 21.3256 13.3983 21.2443 11.8173 20.8792C9.33781 20.3154 7.42463 19.6703 7.42463 17.3011C7.42463 15.2644 8.87132 13.8728 11.1348 13.6072V12.5645H12.9645V13.6072C14.462 13.7735 15.6927 14.2704 16.7255 15.0981L15.1118 17.3679C14.0463 16.6053 12.8828 16.2258 11.8518 16.2258C11.0695 16.2258 10.6865 16.5402 10.6865 16.9721C10.6865 17.5523 11.0858 17.7348 12.7158 18.0817C15.3768 18.6456 17.0413 19.3576 17.0413 21.5262C17.0413 23.7454 15.4604 25.1207 12.9645 25.3194Z" fill="#111F62"/>
</svg>
