<svg width="71" height="70" viewBox="0 0 71 70" fill="none" xmlns="http://www.w3.org/2000/svg">
<path d="M15.0184 8.35614C20.7752 3.83343 28.0341 1.13574 35.9231 1.13574C54.6258 1.13574 69.7876 16.2973 69.7876 35.0003C69.7876 53.7031 54.6258 68.8646 35.9231 68.8646C17.2203 68.8646 2.05847 53.7031 2.05847 35.0002C2.05847 28.665 3.79808 22.7362 6.82568 17.6653" fill="white"/>
<path d="M35.9233 70C26.5744 70 17.7851 66.3593 11.1747 59.7487C4.56392 53.1383 0.923279 44.3487 0.923279 35C0.923279 28.6782 2.62732 22.4826 5.85078 17.083C6.17257 16.5446 6.86946 16.3688 7.40804 16.6901C7.9464 17.0116 8.12225 17.7086 7.80088 18.2471C4.78714 23.2949 3.19418 29.0879 3.19418 35C3.19418 53.0469 17.8765 67.7289 35.9233 67.7289C53.9701 67.7289 68.6521 53.0469 68.6521 35C68.6521 16.9532 53.9701 2.2709 35.9233 2.2709C28.5169 2.2709 21.5306 4.68378 15.7201 9.24877C15.227 9.63631 14.5134 9.5504 14.1258 9.05736C13.7384 8.56425 13.8241 7.85046 14.3173 7.46306C17.3342 5.09282 20.6909 3.24765 24.2944 1.97867C28.0225 0.665848 31.9352 0 35.9233 0C45.2722 0 54.0614 3.64064 60.672 10.2513C67.2825 16.8619 70.9232 25.6513 70.9232 35C70.9232 44.3487 67.2825 53.1381 60.672 59.7487C54.0614 66.3593 45.2722 70 35.9233 70Z" fill="#111F62"/>
<path d="M8.74527 15.9274C8.50953 15.9274 8.27167 15.8543 8.06804 15.7025C7.56503 15.3279 7.46116 14.6166 7.83555 14.1137C9.09428 12.4235 10.5144 10.8374 12.0563 9.3994C12.515 8.97163 13.2335 8.99659 13.6612 9.4554C14.089 9.91408 14.0639 10.6325 13.6052 11.0602C12.1628 12.4055 10.8343 13.8892 9.65682 15.4701C9.43403 15.7694 9.09188 15.9274 8.74527 15.9274Z" fill="#111F62"/>
<path d="M35.923 63.3265C51.5674 63.3265 64.2499 50.644 64.2499 34.9995C64.2499 19.3552 51.5674 6.67285 35.923 6.67285C20.2786 6.67285 7.59625 19.3552 7.59625 34.9995C7.59625 50.644 20.2786 63.3265 35.923 63.3265Z" fill="#3CB4E5"/>
<path d="M35.8035 6.59375C30.6808 6.59375 25.8758 7.95387 21.7294 10.3323C35.3757 12.3671 45.8433 24.1341 45.8433 38.3467C45.8433 48.8684 40.1066 58.0499 31.5906 62.9351C32.9653 63.1402 34.3718 63.2469 35.8035 63.2469C51.4479 63.2469 64.1304 50.5647 64.1304 34.9205C64.1304 19.276 51.4479 6.59375 35.8035 6.59375Z" fill="#2D35A4"/>
<path d="M35.9232 64.3427C28.0855 64.3427 20.7169 61.2903 15.1748 55.7482C9.63275 50.2062 6.58054 42.8375 6.58054 34.9999C6.58054 27.1621 9.63275 19.7936 15.1748 14.2515C20.7169 8.70937 28.0855 5.65723 35.9232 5.65723C43.7609 5.65723 51.1294 8.70937 56.6715 14.2515C62.2136 19.7936 65.2659 27.1621 65.2659 34.9999C65.2659 42.8375 62.2136 50.2061 56.6715 55.7482C51.1294 61.2905 43.7609 64.3427 35.9232 64.3427ZM35.9232 7.68914C20.864 7.68914 8.6123 19.9407 8.6123 35C8.6123 50.0591 20.864 62.3106 35.9232 62.3106C50.9824 62.3106 63.2339 50.059 63.2339 34.9999C63.2339 19.9407 50.9824 7.68914 35.9232 7.68914Z" fill="#111F62"/>
<path d="M35.8685 21.7781C34.6221 21.7781 33.7424 21.5773 33.2297 21.1733C32.7161 20.7706 32.4597 20.0557 32.4597 19.0293V17.9846C32.4597 16.922 32.7436 16.1982 33.3121 15.8134C33.8798 15.4282 34.7499 15.2358 35.9235 15.2358C37.2057 15.2358 38.1037 15.4376 38.6173 15.8407C39.13 16.2443 39.3867 16.9593 39.3867 17.9847V19.0294C39.3867 20.0929 39.1122 20.8163 38.5623 21.2011C38.0124 21.5858 37.1141 21.7781 35.8685 21.7781ZM39.222 51.4104C39.222 52.3641 38.9104 53.1609 38.2876 53.8023C37.664 54.4438 36.8761 54.7641 35.9235 54.7641C34.9701 54.7641 34.1822 54.4438 33.5594 53.8023C32.9357 53.1609 32.6248 52.3642 32.6248 51.4104V28.7052C32.6248 27.7527 32.9359 26.9555 33.5594 26.3139C34.1822 25.6728 34.97 25.3515 35.9235 25.3515C36.8761 25.3515 37.664 25.6728 38.2876 26.3139C38.9104 26.9555 39.222 27.7527 39.222 28.7052V51.4104Z" fill="white"/>
</svg>
