<svg width="75" height="70" viewBox="0 0 75 70" fill="none" xmlns="http://www.w3.org/2000/svg">
<path d="M18.6381 14.85L28.15 12.1933L30.7592 0.000976562H23.6905L18.6381 14.85Z" fill="#3CB4E5"/>
<path d="M28.1496 12.1933L50.1147 0.000976562H30.7351L28.1496 12.1933Z" fill="#2D35A4"/>
<path d="M28.1496 12.1933L36.6178 24.2907L37.6141 21.0647L40.4842 30.2208L51.6803 44.3582L60.1485 25.1209L51.4905 0.000976562H50.1147L28.1496 12.1933Z" fill="#3CB4E5"/>
<path d="M18.6375 14.8496L28.1494 12.1929L36.6176 24.2903L31.7311 40.3491L11.4739 35.7947L18.6375 14.8496Z" fill="#2D35A4"/>
<path d="M39.4387 41.9154L51.6785 44.3586L40.4824 30.2212L44.1591 41.9154H39.4387Z" fill="#2D35A4"/>
<path d="M60.1478 25.1216L51.6796 44.3589L69.1141 66.4663H74.3563L60.1478 25.1216Z" fill="#8FD6F2"/>
<path d="M4.61797 55.9565L5.30586 56.3598L3.9538 57.9016L4.61797 55.9565Z" fill="#111F62"/>
<path d="M23.6888 62.1478L5.30548 56.36L51.679 44.3574L69.1135 66.4649H52.9362L49.7102 56.2888H25.4916L23.6888 62.1478Z" fill="#8FD6F2"/>
<path d="M0.846619 66.9881H22.195L23.6894 62.1491L5.30606 56.3613L3.954 57.9032L0.846619 66.9881Z" fill="#2D35A4"/>
<path d="M0.846619 66.9878L1.58195 70.0003H22.5508L22.195 66.9878H0.846619Z" fill="#3CB4E5"/>
<path d="M25.4923 56.2896L25.943 59.5393L49.6397 59.7527L49.8532 56.7877L49.7109 56.2896H25.4923Z" fill="#3CB4E5"/>
<path d="M22.1931 66.9869L22.5489 69.9994L23.9247 65.7535L23.6875 62.1479L22.1931 66.9869Z" fill="#2D35A4"/>
<path d="M23.926 65.754L25.9422 59.5393L25.4915 56.2896L23.6888 62.1485L23.926 65.754Z" fill="#8FD6F2"/>
<path d="M49.6401 59.7519L49.901 56.9292L52.9372 66.4648V69.9992L49.6401 59.7519Z" fill="#8FD6F2"/>
<path d="M69.1146 66.4648H52.9373V69.9992H69.1146V66.4648Z" fill="#3CB4E5"/>
<path d="M69.1131 66.4648H74.3553L74.2367 69.9992H69.1131V66.4648Z" fill="#8FD6F2"/>
<path d="M37.6131 17.4585L30.1411 41.9143H31.2797L37.6131 21.064L44.1599 41.9143H45.2748L37.6131 17.4585Z" fill="#3CB4E5"/>
<path d="M11.4729 35.7949L4.61768 55.9573L5.30557 56.3606L51.6791 44.358L39.4393 41.9148H30.1409L30.6865 40.112L11.4729 35.7949Z" fill="#3CB4E5"/>
<path d="M42.4045 32.6396L40.6017 30.5759L37.6129 21.064L36.6167 24.29L35.8576 23.1988L37.6129 17.4585L42.4045 32.6396Z" fill="#3CB4E5"/>
<g opacity="0.62">
<mask id="mask0_401_5249" style="mask-type:luminance" maskUnits="userSpaceOnUse" x="0" y="0" width="75" height="67">
<path d="M74.3603 0H0.850647V66.9866H74.3603V0Z" fill="white"/>
</mask>
<g mask="url(#mask0_401_5249)">
<path d="M51.4938 0H23.6934L0.850647 66.9866H22.1991L25.4962 56.2886H49.7148L52.9408 66.4647H74.3603L51.4938 0ZM50.118 54.984H24.6897L21.0368 65.0889H3.67338L24.6897 1.61299H50.118L72.5339 65.0889H53.7473L50.118 54.984Z" fill="#111F62"/>
</g>
</g>
</svg>
